<svg width="1024" height="1024" viewBox="0 0 1024 1024"
     xmlns="http://www.w3.org/2000/svg"
     style="background:#000; isolation:isolate">

<defs>
<g id="thought-src"
stroke="rgb(0,0,255)"
stroke-width="3"
fill="none"
stroke-linecap="round"
stroke-linejoin="round"
filter="url(#lightUp)">
<path id="path_thought" d="M 0 512
 C 69 513, 385 485, 480 518
 C 575 551, 641 710, 663 745
 C 685 780, 607 836, 631 764
 C 655 692, 896 248, 829 243
 C 762 238, 206 743, 164 732
 C 122 721, 499 234, 534 169
 C 569 104, 366 258, 406 275
 C 446 292, 752 287, 816 290
 C 880 293, 857 271, 853 297
 C 849 323, 887 483, 790 471
 C 693 459, 229 184, 173 215
 C 117 246, 382 655, 401 690
 C 420 725, 269 436, 308 463
 C 347 490, 653 869, 675 882
 C 697 895, 510 617, 464 551
 C 418 485, 307 461, 354 421
 C 401 381, 754 226, 793 268
 C 832 310, 691 732, 626 715
 C 561 698, 387 224, 336 152
 C 285 80, 220 134, 271 210
 C 322 286, 601 675, 690 685
 C 779 695, 915 321, 893 277
 C 871 233, 590 317, 536 379
 C 482 441, 525 720, 516 714
 C 507 708, 468 364, 474 334
 C 480 304, 569 521, 560 502
 C 551 483, 427 253, 414 204
 C 401 155, 471 76, 466 158
 C 461 240, 381 778, 376 780
 C 371 782, 364 251, 428 172
 C 492 93, 831 200, 826 225
 C 821 250, 488 331, 394 345
 C 300 359, 111 336, 170 326
 C 229 316, 733 251, 805 275
 C 877 299, 721 479, 677 496
 C 633 513, 449 395, 499 397
 C 549 399, 949 496, 1024 512
">
</path>
</g>
<g id="will-src"
stroke="rgb(255,0,0)"
stroke-width="3"
fill="none"
stroke-linecap="round"
stroke-linejoin="round"
filter="url(#lightUp)">
<path id="path_will" d="M 0 515
 C 69 515, 389 484, 484 516
 C 579 548, 644 706, 665 740
 C 686 774, 606 825, 630 754
 C 654 683, 899 248, 832 245
 C 765 242, 206 742, 163 730
 C 120 718, 497 229, 532 164
 C 567 99, 369 258, 409 275
 C 449 292, 747 282, 810 285
 C 873 288, 853 272, 850 299
 C 847 326, 887 484, 791 472
 C 695 460, 236 184, 181 215
 C 126 246, 388 653, 405 689
 C 422 725, 265 436, 303 464
 C 341 492, 647 873, 670 886
 C 693 899, 512 622, 466 555
 C 420 488, 304 458, 351 416
 C 398 374, 755 217, 793 261
 C 831 305, 686 737, 620 722
 C 554 707, 381 227, 331 153
 C 281 79, 217 130, 268 206
 C 319 282, 599 672, 687 682
 C 775 692, 907 321, 885 278
 C 863 235, 585 317, 531 379
 C 477 441, 519 723, 510 715
 C 501 707, 462 355, 469 325
 C 476 295, 567 522, 560 505
 C 553 488, 429 254, 417 204
 C 405 154, 481 77, 474 158
 C 467 239, 377 769, 370 771
 C 363 773, 362 249, 426 171
 C 490 93, 824 204, 820 228
 C 816 252, 488 327, 395 340
 C 302 353, 109 327, 169 317
 C 229 307, 739 246, 812 272
 C 885 298, 724 480, 679 498
 C 634 516, 450 395, 499 398
 C 548 401, 949 499, 1024 516
">
</path>
</g>
<g id="awa-src"
stroke="rgb(0,255,0)"
stroke-width="3"
fill="none"
stroke-linecap="round"
stroke-linejoin="round"
filter="url(#lightUp)">
<path id="path_awa" d="M 0 512
 C 68 513, 384 484, 479 517
 C 574 550, 640 709, 662 744
 C 684 779, 611 834, 635 762
 C 659 690, 900 242, 833 238
 C 766 234, 210 741, 167 731
 C 124 721, 500 235, 534 171
 C 568 107, 365 264, 405 281
 C 445 298, 747 291, 811 293
 C 875 295, 852 267, 850 294
 C 848 321, 890 490, 794 480
 C 698 470, 234 191, 178 221
 C 122 251, 385 655, 403 691
 C 421 727, 268 444, 306 472
 C 344 500, 649 874, 671 886
 C 693 898, 506 619, 461 553
 C 416 487, 311 462, 359 421
 C 407 380, 757 222, 795 264
 C 833 306, 692 734, 626 718
 C 560 702, 385 223, 335 151
 C 285 79, 224 136, 275 213
 C 326 290, 602 680, 689 689
 C 776 698, 907 322, 885 278
 C 863 234, 590 320, 537 383
 C 484 446, 520 727, 511 719
 C 502 711, 464 358, 472 326
 C 480 294, 576 514, 568 497
 C 560 480, 430 252, 416 205
 C 402 158, 479 84, 473 165
 C 467 246, 378 770, 372 771
 C 366 772, 365 250, 430 173
 C 495 96, 828 205, 824 229
 C 820 253, 498 327, 404 340
 C 310 353, 108 327, 165 319
 C 222 311, 729 255, 803 281
 C 877 307, 722 483, 680 499
 C 638 515, 457 394, 506 396
 C 555 398, 950 499, 1024 516
">
</path>
</g>
<filter id="lightUp"
filterUnits="userSpaceOnUse"
x="-100%" y="-100%" width="200%" height="200%"
color-interpolation-filters="sRGB">

<feGaussianBlur in="SourceGraphic"
stdDeviation="3" 
result="blur">
</feGaussianBlur>

<feMerge>
<feMergeNode in="blur"/>
<feMergeNode in="blur"/>
<feMergeNode in="SourceGraphic"/>
</feMerge>
</filter> 
</defs>

<rect width='1024' height='1024' fill='#000'/>

  <g>
    <use href="#thought-src" style="mix-blend-mode:lighten;"/>
    <use href="#will-src" style="mix-blend-mode:lighten;"/>
    <use href="#awa-src" style="mix-blend-mode:lighten;"/>
  </g>


</svg>