<svg width="1024" height="1024" viewBox="0 0 1024 1024"
     xmlns="http://www.w3.org/2000/svg"
     style="background:#000; isolation:isolate">

<defs>
<g id="thought-src"
stroke="rgb(0,0,255)"
stroke-width="3"
fill="none"
stroke-linecap="round"
stroke-linejoin="round"
filter="url(#lightUp)">
<path id="path_thought" d="M 0 519
 C 143 636, 305 883, 429 869
 C 553 855, 262 700, 373 476
 C 484 252, 614 129, 763 197
 C 912 265, 784 661, 819 680
 C 854 699, 968 261, 868 254
 C 768 247, 526 480, 520 658
 C 514 836, 807 855, 850 787
 C 893 719, 713 437, 648 454
 C 583 471, 730 776, 654 837
 C 578 898, 451 810, 420 637
 C 389 464, 631 270, 562 318
 C 493 366, 140 818, 213 780
 C 286 742, 622 315, 780 203
 C 938 91, 655 314, 687 443
 C 719 572, 871 653, 875 591
 C 879 529, 840 376, 699 257
 C 558 138, 636 126, 453 235
 C 270 344, 189 483, 151 585
 C 113 687, 338 677, 340 540
 C 342 403, 14 198, 156 173
 C 298 148, 677 392, 766 464
 C 855 536, 559 253, 424 388
 C 289 523, 298 809, 362 870
 C 426 931, 452 582, 616 571
 C 780 560, 807 943, 853 836
 C 899 729, 769 427, 753 251
 C 737 75, 983 252, 804 309
 C 625 366, 236 227, 217 421
 C 198 615, 702 761, 746 890
 C 790 1019, 474 941, 348 808
 C 222 675, 219 567, 368 490
 C 517 413, 746 565, 796 576
 C 846 587, 655 660, 517 523
 C 379 386, 331 225, 381 166
 C 431 107, 676 281, 668 345
 C 660 409, 489 420, 358 359
 C 227 298, 297 82, 276 162
 C 255 242, 299 544, 296 598
 C 293 652, 24 353, 267 325
 C 510 297, 772 450, 1024 513
">
</path>
</g>
<g id="will-src"
stroke="rgb(255,0,0)"
stroke-width="3"
fill="none"
stroke-linecap="round"
stroke-linejoin="round"
filter="url(#lightUp)">
<path id="path_will" d="M 0 514
 C 143 632, 305 883, 430 869
 C 555 855, 261 698, 374 472
 C 487 246, 620 121, 770 192
 C 920 263, 791 661, 823 684
 C 855 707, 968 271, 867 262
 C 766 253, 529 485, 521 658
 C 513 831, 801 849, 842 780
 C 883 711, 707 432, 644 452
 C 581 472, 729 780, 654 841
 C 579 902, 447 811, 419 635
 C 391 459, 641 265, 571 313
 C 501 361, 139 816, 210 779
 C 281 742, 625 315, 784 202
 C 943 89, 655 309, 687 441
 C 719 573, 875 657, 879 597
 C 883 537, 841 380, 699 260
 C 557 140, 634 131, 452 238
 C 270 345, 190 480, 154 581
 C 118 682, 346 676, 344 541
 C 342 406, 5 203, 148 177
 C 291 151, 684 394, 774 462
 C 864 530, 556 243, 418 381
 C 280 519, 294 809, 360 875
 C 426 941, 451 593, 616 580
 C 781 567, 806 946, 854 836
 C 902 726, 774 429, 759 251
 C 744 73, 989 246, 810 303
 C 631 360, 242 224, 222 423
 C 202 622, 709 774, 750 900
 C 791 1026, 471 938, 346 802
 C 221 666, 225 567, 376 492
 C 527 417, 750 571, 798 578
 C 846 585, 662 649, 520 514
 C 378 379, 324 230, 371 174
 C 418 118, 664 285, 661 346
 C 658 407, 490 419, 362 357
 C 234 295, 299 81, 278 161
 C 257 241, 303 542, 300 597
 C 297 652, 29 352, 270 326
 C 511 300, 773 455, 1024 520
">
</path>
</g>
<g id="awa-src"
stroke="rgb(0,255,0)"
stroke-width="3"
fill="none"
stroke-linecap="round"
stroke-linejoin="round"
filter="url(#lightUp)">
<path id="path_awa" d="M 0 518
 C 144 635, 308 883, 432 868
 C 556 853, 259 699, 372 474
 C 485 249, 622 125, 771 194
 C 920 263, 788 657, 819 680
 C 850 703, 965 270, 865 263
 C 765 256, 525 486, 520 660
 C 515 834, 809 855, 849 786
 C 889 717, 704 437, 639 452
 C 574 467, 729 770, 655 831
 C 581 892, 447 805, 417 634
 C 387 463, 633 273, 566 319
 C 499 365, 142 811, 215 772
 C 288 733, 628 312, 785 203
 C 942 94, 654 317, 685 445
 C 716 573, 872 648, 877 588
 C 882 528, 840 382, 699 265
 C 558 148, 636 133, 454 237
 C 272 341, 190 475, 152 578
 C 114 681, 342 682, 341 546
 C 340 410, 7 197, 150 169
 C 293 141, 681 392, 771 463
 C 861 534, 556 246, 420 383
 C 284 520, 297 810, 362 875
 C 427 940, 452 592, 616 578
 C 780 564, 808 941, 854 834
 C 900 727, 769 432, 754 256
 C 739 80, 990 250, 810 307
 C 630 364, 235 232, 214 428
 C 193 624, 705 770, 748 896
 C 791 1022, 468 943, 343 807
 C 218 671, 221 564, 374 488
 C 527 412, 758 568, 803 578
 C 848 588, 652 654, 510 518
 C 368 382, 325 230, 378 170
 C 431 110, 675 278, 669 338
 C 663 398, 492 411, 361 350
 C 230 289, 296 71, 276 154
 C 256 237, 302 541, 300 599
 C 298 657, 28 353, 269 327
 C 510 301, 772 456, 1024 521
">
</path>
</g>
<filter id="lightUp"
filterUnits="userSpaceOnUse"
x="-100%" y="-100%" width="200%" height="200%"
color-interpolation-filters="sRGB">

<feGaussianBlur in="SourceGraphic"
stdDeviation="3" 
result="blur">
</feGaussianBlur>

<feMerge>
<feMergeNode in="blur"/>
<feMergeNode in="blur"/>
<feMergeNode in="SourceGraphic"/>
</feMerge>
</filter> 
</defs>

<rect width='1024' height='1024' fill='#000'/>

  <g>
    <use href="#thought-src" style="mix-blend-mode:lighten;"/>
    <use href="#will-src" style="mix-blend-mode:lighten;"/>
    <use href="#awa-src" style="mix-blend-mode:lighten;"/>
  </g>


</svg>