<svg width="1024" height="1024" viewBox="0 0 1024 1024"
     xmlns="http://www.w3.org/2000/svg"
     style="background:#000; isolation:isolate">

<defs>
<g id="thought-src"
stroke="rgb(0,0,255)"
stroke-width="4"
fill="none"
stroke-linecap="round"
stroke-linejoin="round"
filter="url(#lightUp)">
<path id="path_thought" d="M 0 519
 C 31 506, 55 409, 184 444
 C 313 479, 728 707, 773 729
 C 818 751, 528 569, 451 578
 C 374 587, 240 738, 312 782
 C 384 826, 885 905, 884 841
 C 883 777, 334 489, 308 399
 C 282 309, 677 313, 730 303
 C 783 293, 645 352, 625 341
 C 605 330, 647 249, 609 235
 C 571 221, 377 264, 398 256
 C 419 248, 681 109, 735 186
 C 789 263, 748 613, 719 715
 C 690 817, 572 774, 559 798
 C 546 822, 709 853, 642 859
 C 575 865, 164 900, 157 835
 C 150 770, 529 565, 598 469
 C 667 373, 536 240, 572 261
 C 608 282, 847 606, 814 595
 C 781 584, 411 171, 372 197
 C 333 223, 596 660, 581 753
 C 566 846, 250 794, 284 752
 C 318 710, 709 514, 787 501
 C 865 488, 848 676, 750 673
 C 652 670, 187 466, 202 485
 C 217 504, 741 752, 840 784
 C 939 816, 866 685, 795 676
 C 724 667, 378 756, 416 729
 C 454 702, 923 552, 1024 516
">
</path>
</g>
<g id="will-src"
stroke="rgb(255,0,0)"
stroke-width="4"
fill="none"
stroke-linecap="round"
stroke-linejoin="round"
filter="url(#lightUp)">
<path id="path_will" d="M 0 519
 C 29 506, 46 407, 176 443
 C 306 479, 733 710, 779 732
 C 825 754, 529 567, 451 577
 C 373 587, 242 746, 313 791
 C 384 836, 880 911, 879 846
 C 878 781, 331 491, 306 400
 C 281 309, 677 313, 730 303
 C 783 293, 641 355, 621 343
 C 601 331, 648 246, 611 233
 C 574 220, 376 274, 397 266
 C 418 258, 684 108, 738 184
 C 792 260, 751 617, 720 720
 C 689 823, 564 779, 551 802
 C 538 825, 706 852, 640 857
 C 574 862, 162 898, 156 834
 C 150 770, 536 569, 606 474
 C 676 379, 540 245, 575 265
 C 610 285, 848 602, 815 591
 C 782 580, 415 172, 376 199
 C 337 226, 599 662, 583 754
 C 567 846, 247 792, 281 750
 C 315 708, 710 512, 787 500
 C 864 488, 843 680, 745 678
 C 647 676, 187 469, 202 486
 C 217 503, 737 748, 836 780
 C 935 812, 864 685, 794 677
 C 724 669, 378 761, 416 734
 C 454 707, 923 553, 1024 517
">
</path>
</g>
<g id="awa-src"
stroke="rgb(0,255,0)"
stroke-width="4"
fill="none"
stroke-linecap="round"
stroke-linejoin="round"
filter="url(#lightUp)">
<path id="path_awa" d="M 0 520
 C 30 506, 53 402, 182 438
 C 311 474, 728 711, 773 735
 C 818 759, 527 572, 451 581
 C 375 590, 246 745, 318 789
 C 390 833, 885 912, 883 847
 C 881 782, 330 492, 306 402
 C 282 312, 686 318, 739 309
 C 792 300, 646 357, 625 346
 C 604 335, 648 255, 611 241
 C 574 227, 379 271, 401 262
 C 423 253, 689 110, 742 185
 C 795 260, 747 612, 716 714
 C 685 816, 573 775, 559 798
 C 545 821, 703 845, 635 852
 C 567 859, 158 900, 153 837
 C 148 774, 533 569, 604 473
 C 675 377, 543 243, 578 264
 C 613 285, 846 607, 813 596
 C 780 585, 416 175, 378 201
 C 340 227, 602 658, 586 750
 C 570 842, 249 792, 282 751
 C 315 710, 707 515, 784 502
 C 861 489, 842 675, 745 672
 C 648 669, 189 465, 204 484
 C 219 503, 736 751, 836 783
 C 936 815, 873 684, 803 675
 C 733 666, 381 757, 418 730
 C 455 703, 923 551, 1024 515
">
</path>
</g>
<filter id="lightUp"
filterUnits="userSpaceOnUse"
x="-100%" y="-100%" width="200%" height="200%"
color-interpolation-filters="sRGB">

<feGaussianBlur in="SourceGraphic"
stdDeviation="3" 
result="blur">
</feGaussianBlur>

<feMerge>
<feMergeNode in="blur"/>
<feMergeNode in="blur"/>
<feMergeNode in="SourceGraphic"/>
</feMerge>
</filter> 
</defs>

<rect width='1024' height='1024' fill='#000'/>

  <g>
    <use href="#thought-src" style="mix-blend-mode:lighten;"/>
    <use href="#will-src" style="mix-blend-mode:lighten;"/>
    <use href="#awa-src" style="mix-blend-mode:lighten;"/>
  </g>


</svg>