<svg width="1024" height="1024" viewBox="0 0 1024 1024"
     xmlns="http://www.w3.org/2000/svg"
     style="background:#000; isolation:isolate">

<defs>
<g id="thought-src"
stroke="rgb(0,0,255)"
stroke-width="3"
fill="none"
stroke-linecap="round"
stroke-linejoin="round"
filter="url(#lightUp)">
<path id="path_thought" d="M 0 514
 C 78 506, 621 409, 706 439
 C 791 469, 777 791, 769 787
 C 761 783, 674 439, 630 406
 C 586 373, 390 490, 374 493
 C 358 496, 443 426, 490 429
 C 537 432, 816 481, 796 520
 C 776 559, 329 797, 309 780
 C 289 763, 584 366, 617 366
 C 650 366, 615 783, 610 783
 C 605 783, 567 387, 568 367
 C 569 347, 609 587, 618 607
 C 627 627, 686 543, 651 544
 C 616 545, 326 632, 299 612
 C 272 592, 392 362, 407 360
 C 422 358, 454 604, 436 594
 C 418 584, 239 263, 241 272
 C 243 281, 412 642, 454 671
 C 496 700, 608 529, 622 533
 C 636 537, 592 677, 584 703
 C 576 729, 581 765, 546 771
 C 511 777, 253 776, 270 756
 C 287 736, 693 589, 695 588
 C 697 587, 307 763, 290 745
 C 273 727, 545 432, 540 425
 C 535 418, 221 636, 244 679
 C 267 722, 750 860, 748 809
 C 746 758, 246 253, 224 219
 C 202 185, 486 499, 546 502
 C 606 505, 789 272, 764 248
 C 739 224, 382 249, 325 286
 C 268 323, 214 530, 249 581
 C 284 632, 628 762, 644 744
 C 660 726, 381 459, 389 418
 C 397 377, 670 390, 716 379
 C 762 368, 832 299, 802 318
 C 772 337, 480 502, 448 547
 C 416 592, 472 700, 513 720
 C 554 740, 836 780, 814 725
 C 792 670, 292 249, 315 226
 C 338 203, 945 485, 1024 517
">
</path>
</g>
<g id="will-src"
stroke="rgb(255,0,0)"
stroke-width="3"
fill="none"
stroke-linecap="round"
stroke-linejoin="round"
filter="url(#lightUp)">
<path id="path_will" d="M 0 515
 C 79 507, 625 414, 710 444
 C 795 474, 772 792, 763 788
 C 754 784, 674 445, 631 412
 C 588 379, 392 487, 377 490
 C 362 493, 446 432, 494 436
 C 542 440, 825 485, 805 523
 C 785 561, 331 798, 310 781
 C 289 764, 586 369, 620 369
 C 654 369, 621 782, 615 782
 C 609 782, 565 388, 565 369
 C 565 350, 607 590, 617 609
 C 627 628, 687 542, 651 542
 C 615 542, 324 631, 297 611
 C 270 591, 392 365, 407 363
 C 422 361, 453 607, 435 597
 C 417 587, 240 268, 242 276
 C 244 284, 414 643, 457 672
 C 500 701, 614 530, 627 533
 C 640 536, 585 674, 576 700
 C 567 726, 583 762, 550 768
 C 517 774, 260 778, 277 758
 C 294 738, 698 585, 699 584
 C 700 583, 305 768, 288 750
 C 271 732, 547 434, 542 426
 C 537 418, 218 639, 241 681
 C 264 723, 755 856, 752 805
 C 749 754, 238 254, 216 219
 C 194 184, 490 488, 550 492
 C 610 496, 784 278, 759 255
 C 734 232, 385 245, 328 281
 C 271 317, 208 526, 243 578
 C 278 630, 624 763, 640 745
 C 656 727, 381 460, 390 420
 C 399 380, 672 395, 717 383
 C 762 371, 826 297, 796 315
 C 766 333, 475 498, 444 543
 C 413 588, 472 704, 514 724
 C 556 744, 841 780, 819 724
 C 797 668, 293 244, 316 221
 C 339 198, 945 486, 1024 519
">
</path>
</g>
<g id="awa-src"
stroke="rgb(0,255,0)"
stroke-width="3"
fill="none"
stroke-linecap="round"
stroke-linejoin="round"
filter="url(#lightUp)">
<path id="path_awa" d="M 0 512
 C 79 505, 626 416, 711 446
 C 796 476, 775 789, 766 785
 C 757 781, 675 445, 632 413
 C 589 381, 392 495, 376 497
 C 360 499, 443 427, 491 430
 C 539 433, 824 486, 804 524
 C 784 562, 334 790, 313 772
 C 292 754, 580 362, 614 364
 C 648 366, 623 786, 618 786
 C 613 786, 569 386, 569 367
 C 569 348, 607 595, 617 614
 C 627 633, 691 541, 655 540
 C 619 539, 321 629, 293 609
 C 265 589, 388 360, 404 358
 C 420 356, 452 602, 434 593
 C 416 584, 238 269, 240 277
 C 242 285, 413 637, 455 666
 C 497 695, 603 534, 618 538
 C 633 542, 594 681, 586 706
 C 578 731, 585 761, 550 766
 C 515 771, 254 773, 270 753
 C 286 733, 692 585, 694 585
 C 696 585, 309 767, 291 750
 C 273 733, 539 437, 534 430
 C 529 423, 224 642, 248 685
 C 272 728, 755 865, 752 813
 C 749 761, 246 251, 223 216
 C 200 181, 483 496, 543 500
 C 603 504, 787 273, 763 250
 C 739 227, 388 253, 330 290
 C 272 327, 209 529, 244 579
 C 279 629, 626 761, 643 743
 C 660 725, 387 459, 395 419
 C 403 379, 667 396, 712 385
 C 757 374, 825 300, 796 318
 C 767 336, 479 501, 448 546
 C 417 591, 480 704, 520 724
 C 560 744, 834 779, 812 723
 C 790 667, 294 245, 318 223
 C 342 201, 946 489, 1024 522
">
</path>
</g>
<filter id="lightUp"
filterUnits="userSpaceOnUse"
x="-100%" y="-100%" width="200%" height="200%"
color-interpolation-filters="sRGB">

<feGaussianBlur in="SourceGraphic"
stdDeviation="3" 
result="blur">
</feGaussianBlur>

<feMerge>
<feMergeNode in="blur"/>
<feMergeNode in="blur"/>
<feMergeNode in="SourceGraphic"/>
</feMerge>
</filter> 
</defs>

<rect width='1024' height='1024' fill='#000'/>

  <g>
    <use href="#thought-src" style="mix-blend-mode:lighten;"/>
    <use href="#will-src" style="mix-blend-mode:lighten;"/>
    <use href="#awa-src" style="mix-blend-mode:lighten;"/>
  </g>


</svg>