<svg width="1024" height="1024" viewBox="0 0 1024 1024"
     xmlns="http://www.w3.org/2000/svg"
     style="background:#000; isolation:isolate">

<defs>
<g id="thought-src"
stroke="rgb(0,0,255)"
stroke-width="13"
fill="none"
stroke-linecap="round"
stroke-linejoin="round"
filter="url(#lightUp)">
<path id="path_thought" d="M 0 520
 C 81 536, 688 653, 726 662
 C 764 671, 355 646, 340 601
 C 325 556, 578 271, 587 260
 C 596 249, 411 474, 424 498
 C 437 522, 703 478, 708 479
 C 713 480, 462 513, 469 508
 C 476 503, 762 440, 772 437
 C 782 434, 534 477, 562 485
 C 590 493, 973 510, 1024 513
">
</path>
</g>
<g id="will-src"
stroke="rgb(255,0,0)"
stroke-width="13"
fill="none"
stroke-linecap="round"
stroke-linejoin="round"
filter="url(#lightUp)">
<path id="path_will" d="M 0 522
 C 82 538, 697 656, 735 665
 C 773 674, 356 651, 340 606
 C 324 561, 580 272, 589 260
 C 598 248, 411 473, 424 497
 C 437 521, 703 475, 708 476
 C 713 477, 464 512, 471 508
 C 478 504, 762 441, 772 439
 C 782 437, 534 481, 562 489
 C 590 497, 973 509, 1024 512
">
</path>
</g>
<g id="awa-src"
stroke="rgb(0,255,0)"
stroke-width="13"
fill="none"
stroke-linecap="round"
stroke-linejoin="round"
filter="url(#lightUp)">
<path id="path_awa" d="M 0 520
 C 81 536, 689 657, 726 666
 C 763 675, 351 648, 335 603
 C 319 558, 571 273, 581 261
 C 591 249, 408 470, 422 494
 C 436 518, 705 476, 711 478
 C 717 480, 470 512, 476 508
 C 482 504, 754 443, 763 440
 C 772 437, 524 474, 553 482
 C 582 490, 972 510, 1024 514
">
</path>
</g>
<filter id="lightUp"
filterUnits="userSpaceOnUse"
x="-100%" y="-100%" width="200%" height="200%"
color-interpolation-filters="sRGB">

<feGaussianBlur in="SourceGraphic"
stdDeviation="3" 
result="blur">
</feGaussianBlur>

<feMerge>
<feMergeNode in="blur"/>
<feMergeNode in="blur"/>
<feMergeNode in="SourceGraphic"/>
</feMerge>
</filter> 
</defs>

<rect width='1024' height='1024' fill='#000'/>

  <g>
    <use href="#thought-src" style="mix-blend-mode:lighten;"/>
    <use href="#will-src" style="mix-blend-mode:lighten;"/>
    <use href="#awa-src" style="mix-blend-mode:lighten;"/>
  </g>


</svg>