<svg width="1024" height="1024" viewBox="0 0 1024 1024"
     xmlns="http://www.w3.org/2000/svg"
     style="background:#000; isolation:isolate">

<defs>
<g id="thought-src"
stroke="rgb(0,0,255)"
stroke-width="4"
fill="none"
stroke-linecap="round"
stroke-linejoin="round"
filter="url(#lightUp)">
<path id="path_thought" d="M 0 515
 C 115 494, 585 415, 691 388
 C 797 361, 647 358, 634 354
 C 621 350, 667 311, 615 367
 C 563 423, 370 666, 325 692
 C 280 718, 304 525, 344 521
 C 384 517, 513 680, 564 667
 C 615 654, 672 440, 648 442
 C 624 444, 472 694, 421 677
 C 370 660, 297 396, 341 338
 C 385 280, 678 305, 685 328
 C 692 351, 392 423, 381 477
 C 370 531, 578 617, 620 649
 C 662 681, 674 669, 631 667
 C 588 665, 391 631, 365 637
 C 339 643, 482 711, 475 704
 C 468 697, 322 621, 326 593
 C 330 565, 446 534, 500 536
 C 554 538, 627 628, 651 606
 C 675 584, 641 421, 642 404
 C 643 387, 681 500, 655 502
 C 629 504, 493 431, 485 413
 C 477 395, 616 382, 605 393
 C 594 404, 418 458, 421 480
 C 424 502, 637 530, 624 527
 C 611 524, 371 451, 346 460
 C 321 469, 361 570, 474 579
 C 587 588, 932 526, 1024 515
">
</path>
</g>
<g id="will-src"
stroke="rgb(255,0,0)"
stroke-width="4"
fill="none"
stroke-linecap="round"
stroke-linejoin="round"
filter="url(#lightUp)">
<path id="path_will" d="M 0 516
 C 114 496, 577 424, 684 397
 C 791 370, 650 358, 640 353
 C 630 348, 674 311, 622 367
 C 570 423, 375 664, 328 690
 C 281 716, 301 529, 341 525
 C 381 521, 515 681, 568 667
 C 621 653, 681 440, 656 441
 C 631 442, 470 690, 419 673
 C 368 656, 303 399, 349 342
 C 395 285, 686 309, 692 332
 C 698 355, 397 425, 385 478
 C 373 531, 579 620, 619 651
 C 659 682, 669 667, 626 665
 C 583 663, 387 630, 363 637
 C 339 644, 487 713, 480 706
 C 473 699, 322 625, 324 598
 C 326 571, 436 541, 490 544
 C 544 547, 625 636, 650 613
 C 675 590, 637 423, 639 404
 C 641 385, 688 498, 664 500
 C 640 502, 505 431, 494 414
 C 483 397, 608 386, 596 397
 C 584 408, 415 455, 420 477
 C 425 499, 640 529, 627 526
 C 614 523, 369 449, 343 457
 C 317 465, 360 564, 474 574
 C 588 584, 932 526, 1024 516
">
</path>
</g>
<g id="awa-src"
stroke="rgb(0,255,0)"
stroke-width="4"
fill="none"
stroke-linecap="round"
stroke-linejoin="round"
filter="url(#lightUp)">
<path id="path_awa" d="M 0 517
 C 115 497, 585 424, 691 398
 C 797 372, 646 367, 635 361
 C 624 355, 675 307, 624 363
 C 573 419, 374 668, 328 695
 C 282 722, 312 529, 351 525
 C 390 521, 515 683, 564 670
 C 613 657, 672 448, 647 449
 C 622 450, 468 692, 417 675
 C 366 658, 298 403, 344 346
 C 390 289, 684 311, 691 332
 C 698 353, 397 420, 385 473
 C 373 526, 581 617, 621 650
 C 661 683, 664 669, 622 668
 C 580 667, 393 635, 368 643
 C 343 651, 480 723, 473 714
 C 466 705, 320 622, 324 592
 C 328 562, 442 531, 497 535
 C 552 539, 630 635, 653 614
 C 676 593, 635 430, 637 411
 C 639 392, 688 504, 663 503
 C 638 502, 497 425, 486 408
 C 475 391, 611 387, 600 399
 C 589 411, 418 459, 422 481
 C 426 503, 637 536, 625 532
 C 613 528, 375 449, 349 456
 C 323 463, 355 566, 468 576
 C 581 586, 931 524, 1024 514
">
</path>
</g>
<filter id="lightUp"
filterUnits="userSpaceOnUse"
x="-100%" y="-100%" width="200%" height="200%"
color-interpolation-filters="sRGB">

<feGaussianBlur in="SourceGraphic"
stdDeviation="3" 
result="blur">
</feGaussianBlur>

<feMerge>
<feMergeNode in="blur"/>
<feMergeNode in="blur"/>
<feMergeNode in="SourceGraphic"/>
</feMerge>
</filter> 
</defs>

<rect width='1024' height='1024' fill='#000'/>

  <g>
    <use href="#thought-src" style="mix-blend-mode:lighten;"/>
    <use href="#will-src" style="mix-blend-mode:lighten;"/>
    <use href="#awa-src" style="mix-blend-mode:lighten;"/>
  </g>


</svg>