<svg width="1024" height="1024" viewBox="0 0 1024 1024"
     xmlns="http://www.w3.org/2000/svg"
     style="background:#000; isolation:isolate">

<defs>
<g id="thought-src"
stroke="rgb(0,0,255)"
stroke-width="4"
fill="none"
stroke-linecap="round"
stroke-linejoin="round"
filter="url(#lightUp)">
<path id="path_thought" d="M 0 512
 C 29 489, 162 341, 229 331
 C 296 321, 487 401, 533 431
 C 579 461, 591 526, 596 569
 C 601 612, 606 794, 570 778
 C 534 762, 350 482, 308 445
 C 266 408, 193 482, 234 483
 C 275 484, 571 425, 633 456
 C 695 487, 710 739, 730 727
 C 750 715, 815 381, 795 360
 C 775 339, 575 541, 567 561
 C 559 581, 726 517, 733 519
 C 740 521, 644 583, 620 574
 C 596 565, 563 487, 544 447
 C 525 407, 500 222, 465 258
 C 430 294, 277 674, 265 736
 C 253 798, 354 748, 368 751
 C 382 754, 373 814, 379 763
 C 385 712, 426 407, 417 345
 C 408 283, 260 278, 304 269
 C 348 260, 743 273, 772 273
 C 801 273, 543 229, 533 271
 C 523 313, 668 587, 689 611
 C 710 635, 731 498, 697 462
 C 663 426, 446 314, 416 324
 C 386 334, 476 503, 461 539
 C 446 575, 276 575, 298 610
 C 320 645, 546 828, 637 816
 C 728 804, 976 550, 1024 512
">
</path>
</g>
<g id="will-src"
stroke="rgb(255,0,0)"
stroke-width="4"
fill="none"
stroke-linecap="round"
stroke-linejoin="round"
filter="url(#lightUp)">
<path id="path_will" d="M 0 519
 C 28 496, 159 349, 226 338
 C 293 327, 489 401, 535 430
 C 581 459, 591 528, 596 572
 C 601 616, 611 796, 576 780
 C 541 764, 361 479, 318 442
 C 275 405, 191 484, 231 486
 C 271 488, 576 428, 639 458
 C 702 488, 712 741, 732 728
 C 752 715, 816 377, 796 356
 C 776 335, 580 540, 572 560
 C 564 580, 728 512, 733 514
 C 738 516, 637 585, 612 576
 C 587 567, 556 486, 537 446
 C 518 406, 498 219, 464 255
 C 430 291, 279 676, 266 737
 C 253 798, 350 743, 364 746
 C 378 749, 369 808, 376 758
 C 383 708, 430 407, 421 346
 C 412 285, 263 278, 306 268
 C 349 258, 736 270, 765 270
 C 794 270, 543 224, 534 266
 C 525 308, 671 584, 691 609
 C 711 634, 731 504, 697 469
 C 663 434, 449 317, 419 326
 C 389 335, 474 508, 459 543
 C 444 578, 276 574, 299 608
 C 322 642, 550 827, 641 815
 C 732 803, 976 552, 1024 514
">
</path>
</g>
<g id="awa-src"
stroke="rgb(0,255,0)"
stroke-width="4"
fill="none"
stroke-linecap="round"
stroke-linejoin="round"
filter="url(#lightUp)">
<path id="path_awa" d="M 0 520
 C 28 496, 159 340, 226 329
 C 293 318, 485 398, 532 429
 C 579 460, 599 530, 605 573
 C 611 616, 612 788, 576 771
 C 540 754, 360 475, 317 439
 C 274 403, 191 480, 231 483
 C 271 486, 577 429, 639 460
 C 701 491, 708 742, 728 730
 C 748 718, 817 383, 797 361
 C 777 339, 578 538, 570 557
 C 562 576, 725 507, 731 510
 C 737 513, 642 590, 618 581
 C 594 572, 563 483, 543 442
 C 523 401, 494 217, 459 254
 C 424 291, 277 675, 266 737
 C 255 799, 357 749, 370 751
 C 383 753, 367 807, 373 756
 C 379 705, 426 406, 418 345
 C 410 284, 267 277, 310 268
 C 353 259, 735 277, 762 276
 C 789 275, 538 221, 528 263
 C 518 305, 665 588, 686 614
 C 707 640, 727 504, 693 468
 C 659 432, 441 314, 411 323
 C 381 332, 467 500, 454 536
 C 441 572, 283 573, 306 608
 C 329 643, 551 824, 641 813
 C 731 802, 976 556, 1024 519
">
</path>
</g>
<filter id="lightUp"
filterUnits="userSpaceOnUse"
x="-100%" y="-100%" width="200%" height="200%"
color-interpolation-filters="sRGB">

<feGaussianBlur in="SourceGraphic"
stdDeviation="3" 
result="blur">
</feGaussianBlur>

<feMerge>
<feMergeNode in="blur"/>
<feMergeNode in="blur"/>
<feMergeNode in="SourceGraphic"/>
</feMerge>
</filter> 
</defs>

<rect width='1024' height='1024' fill='#000'/>

  <g>
    <use href="#thought-src" style="mix-blend-mode:lighten;"/>
    <use href="#will-src" style="mix-blend-mode:lighten;"/>
    <use href="#awa-src" style="mix-blend-mode:lighten;"/>
  </g>


</svg>