<svg width="1024" height="1024" viewBox="0 0 1024 1024"
     xmlns="http://www.w3.org/2000/svg"
     style="background:#000; isolation:isolate">

<defs>
<g id="thought-src"
stroke="rgb(0,0,255)"
stroke-width="5"
fill="none"
stroke-linecap="round"
stroke-linejoin="round"
filter="url(#lightUp)">
<path id="path_thought" d="M 0 520
 C 697 479, 29 509, 697 479
 C 1365 449, 683 380, 668 490
 C 653 600, 661 314, 682 589
 C 703 864, 650 685, 689 765
 C 728 845, 890 935, 721 669
 C 552 403, 776 636, 520 499
 C 264 362, 294 349, 465 532
 C 636 715, 883 789, 691 682
 C 499 575, 544 690, 273 425
 C 2 160, 432 196, 420 417
 C 408 638, 203 665, 261 646
 C 319 627, 268 425, 478 398
 C 688 371, 183 640, 471 619
 C 759 598, 615 397, 766 377
 C 917 357, 854 395, 622 599
 C 390 803, 912 756, 534 581
 C 156 406, 202 300, 244 424
 C 286 548, 300 614, 576 705
 C 852 796, 743 885, 520 515
 C 297 145, -151 338, 353 335
 C 857 332, 353 335, 1024 512
">
</path>
</g>
<g id="will-src"
stroke="rgb(255,0,0)"
stroke-width="5"
fill="none"
stroke-linecap="round"
stroke-linejoin="round"
filter="url(#lightUp)">
<path id="path_will" d="M 0 521
 C 697 480, 30 510, 697 480
 C 1364 450, 684 391, 667 491
 C 650 591, 656 296, 680 580
 C 704 864, 651 684, 691 775
 C 731 866, 889 947, 720 671
 C 551 395, 781 631, 522 499
 C 263 367, 291 361, 461 539
 C 631 717, 883 782, 692 677
 C 501 572, 539 696, 270 434
 C 1 172, 431 205, 423 415
 C 415 625, 207 661, 262 644
 C 317 627, 260 427, 478 398
 C 696 369, 192 631, 480 615
 C 768 599, 630 391, 766 382
 C 902 373, 856 403, 616 606
 C 376 809, 896 771, 526 585
 C 156 399, 202 307, 246 420
 C 290 533, 299 604, 570 698
 C 841 792, 728 877, 517 514
 C 306 151, -148 332, 359 335
 C 866 338, 359 335, 1024 517
">
</path>
</g>
<g id="awa-src"
stroke="rgb(0,255,0)"
stroke-width="5"
fill="none"
stroke-linecap="round"
stroke-linejoin="round"
filter="url(#lightUp)">
<path id="path_awa" d="M 0 522
 C 695 481, 32 512, 695 481
 C 1358 450, 683 392, 663 491
 C 643 590, 649 302, 675 580
 C 701 858, 638 680, 689 769
 C 740 858, 890 938, 726 669
 C 562 400, 790 640, 525 500
 C 260 360, 294 354, 461 529
 C 628 704, 881 773, 692 675
 C 503 577, 537 689, 272 431
 C 7 173, 430 198, 427 417
 C 424 636, 217 668, 269 650
 C 321 632, 270 432, 479 399
 C 688 366, 194 641, 478 617
 C 762 593, 625 395, 763 375
 C 901 355, 855 388, 616 597
 C 377 806, 888 753, 524 584
 C 160 415, 197 307, 252 428
 C 307 549, 315 618, 579 705
 C 843 792, 735 893, 516 515
 C 297 137, -148 327, 360 327
 C 868 327, 360 327, 1024 515
">
</path>
</g>
<filter id="lightUp"
filterUnits="userSpaceOnUse"
x="-100%" y="-100%" width="200%" height="200%"
color-interpolation-filters="sRGB">

<feGaussianBlur in="SourceGraphic"
stdDeviation="3" 
result="blur">
</feGaussianBlur>

<feMerge>
<feMergeNode in="blur"/>
<feMergeNode in="blur"/>
<feMergeNode in="SourceGraphic"/>
</feMerge>
</filter> 
</defs>

<rect width='1024' height='1024' fill='#000'/>

  <g>
    <use href="#thought-src" style="mix-blend-mode:lighten;"/>
    <use href="#will-src" style="mix-blend-mode:lighten;"/>
    <use href="#awa-src" style="mix-blend-mode:lighten;"/>
  </g>


</svg>