<svg width="1024" height="1024" viewBox="0 0 1024 1024"
     xmlns="http://www.w3.org/2000/svg"
     style="background:#000; isolation:isolate">

<defs>
<g id="thought-src"
stroke="rgb(0,0,255)"
stroke-width="2"
fill="none"
stroke-linecap="round"
stroke-linejoin="round"
filter="url(#lightUp)">
<path id="path_thought" d="M 0 513
 C 117 490, 513 434, 584 400
 C 655 366, 350 295, 356 344
 C 362 393, 549 572, 614 643
 C 679 714, 689 699, 683 701
 C 677 703, 631 675, 583 654
 C 535 633, 423 617, 445 597
 C 467 577, 671 574, 692 554
 C 713 534, 563 515, 552 497
 C 541 479, 634 455, 639 466
 C 644 477, 611 531, 578 551
 C 545 571, 504 558, 476 568
 C 448 578, 421 636, 439 603
 C 457 570, 588 451, 568 404
 C 548 357, 373 318, 337 369
 C 301 420, 386 639, 390 661
 C 394 683, 356 520, 359 479
 C 362 438, 402 453, 405 455
 C 408 457, 378 513, 372 491
 C 366 469, 317 338, 376 343
 C 435 348, 658 457, 666 518
 C 674 579, 467 616, 414 649
 C 361 682, 415 686, 403 683
 C 391 680, 325 654, 354 636
 C 383 618, 501 638, 546 592
 C 591 546, 577 411, 580 406
 C 583 401, 546 575, 559 569
 C 572 563, 672 359, 644 377
 C 616 395, 410 661, 419 661
 C 428 661, 664 434, 687 379
 C 710 324, 540 360, 533 388
 C 526 416, 634 513, 654 521
 C 674 529, 688 421, 633 427
 C 578 433, 418 567, 378 552
 C 338 537, 423 342, 431 354
 C 439 366, 399 578, 419 614
 C 439 650, 495 559, 531 536
 C 567 513, 602 510, 598 500
 C 594 490, 531 516, 512 485
 C 493 454, 526 337, 503 347
 C 480 357, 426 503, 396 533
 C 366 563, 334 504, 354 497
 C 374 490, 477 497, 496 498
 C 515 499, 445 495, 449 504
 C 453 513, 403 541, 518 543
 C 633 545, 923 521, 1024 516
">
</path>
</g>
<g id="will-src"
stroke="rgb(255,0,0)"
stroke-width="2"
fill="none"
stroke-linecap="round"
stroke-linejoin="round"
filter="url(#lightUp)">
<path id="path_will" d="M 0 516
 C 118 495, 516 444, 588 410
 C 660 376, 355 298, 361 344
 C 367 390, 554 569, 617 641
 C 680 713, 686 701, 678 703
 C 670 705, 625 673, 579 651
 C 533 629, 424 612, 446 594
 C 468 576, 666 580, 688 561
 C 710 542, 564 517, 554 499
 C 544 481, 633 462, 637 472
 C 641 482, 604 528, 573 547
 C 542 566, 508 558, 481 569
 C 454 580, 419 635, 438 602
 C 457 569, 596 452, 577 405
 C 558 358, 381 318, 343 369
 C 305 420, 382 637, 385 658
 C 388 679, 356 515, 360 474
 C 364 433, 404 451, 405 455
 C 406 459, 372 515, 367 494
 C 362 473, 320 346, 380 350
 C 440 354, 661 455, 668 515
 C 675 575, 472 617, 417 652
 C 362 687, 406 695, 395 690
 C 384 685, 332 646, 362 627
 C 392 608, 503 639, 546 594
 C 589 549, 576 409, 579 403
 C 582 397, 546 569, 560 565
 C 574 561, 675 363, 647 383
 C 619 403, 413 665, 422 663
 C 431 661, 670 431, 692 374
 C 714 317, 543 349, 534 378
 C 525 407, 627 510, 646 521
 C 665 532, 684 428, 630 433
 C 576 438, 416 560, 377 546
 C 338 532, 429 350, 436 364
 C 443 378, 394 580, 414 614
 C 434 648, 498 560, 535 536
 C 572 512, 603 507, 597 495
 C 591 483, 524 506, 506 476
 C 488 446, 527 337, 506 346
 C 485 355, 430 493, 400 523
 C 370 553, 336 502, 355 497
 C 374 492, 478 498, 496 499
 C 514 500, 444 492, 447 502
 C 450 512, 397 544, 512 547
 C 627 550, 922 524, 1024 518
">
</path>
</g>
<g id="awa-src"
stroke="rgb(0,255,0)"
stroke-width="2"
fill="none"
stroke-linecap="round"
stroke-linejoin="round"
filter="url(#lightUp)">
<path id="path_awa" d="M 0 521
 C 118 498, 518 445, 590 408
 C 662 371, 354 292, 359 338
 C 364 384, 549 565, 613 637
 C 677 709, 686 693, 681 697
 C 676 701, 637 679, 589 659
 C 541 639, 423 618, 443 599
 C 463 580, 668 585, 690 563
 C 712 541, 562 507, 553 489
 C 544 471, 640 463, 644 474
 C 648 485, 606 528, 574 546
 C 542 564, 512 550, 486 563
 C 460 576, 427 641, 444 609
 C 461 577, 590 451, 569 403
 C 548 355, 374 321, 338 371
 C 302 421, 385 633, 388 653
 C 391 673, 352 513, 354 473
 C 356 433, 397 449, 400 452
 C 403 455, 370 508, 367 487
 C 364 466, 324 343, 384 348
 C 444 353, 660 451, 666 511
 C 672 571, 470 615, 416 650
 C 362 685, 407 691, 395 688
 C 383 685, 324 654, 354 635
 C 384 616, 498 641, 544 594
 C 590 547, 583 407, 585 401
 C 587 395, 543 566, 555 562
 C 567 558, 671 361, 644 380
 C 617 399, 410 657, 419 657
 C 428 657, 666 433, 689 378
 C 712 323, 542 353, 535 380
 C 528 407, 635 505, 654 515
 C 673 525, 684 425, 629 431
 C 574 437, 419 560, 380 546
 C 341 532, 426 349, 435 362
 C 444 375, 403 576, 423 610
 C 443 644, 500 554, 535 532
 C 570 510, 604 510, 599 500
 C 594 490, 528 513, 509 483
 C 490 453, 524 341, 502 349
 C 480 357, 429 493, 399 523
 C 369 553, 330 505, 351 500
 C 372 495, 482 495, 502 497
 C 522 499, 449 500, 450 508
 C 451 516, 393 535, 508 537
 C 623 539, 921 523, 1024 519
">
</path>
</g>
<filter id="lightUp"
filterUnits="userSpaceOnUse"
x="-100%" y="-100%" width="200%" height="200%"
color-interpolation-filters="sRGB">

<feGaussianBlur in="SourceGraphic"
stdDeviation="3" 
result="blur">
</feGaussianBlur>

<feMerge>
<feMergeNode in="blur"/>
<feMergeNode in="blur"/>
<feMergeNode in="SourceGraphic"/>
</feMerge>
</filter> 
</defs>

<rect width='1024' height='1024' fill='#000'/>

  <g>
    <use href="#thought-src" style="mix-blend-mode:lighten;"/>
    <use href="#will-src" style="mix-blend-mode:lighten;"/>
    <use href="#awa-src" style="mix-blend-mode:lighten;"/>
  </g>


</svg>