<svg width="1024" height="1024" viewBox="0 0 1024 1024"
     xmlns="http://www.w3.org/2000/svg"
     style="background:#000; isolation:isolate">

<defs>
<g id="thought-src"
stroke="rgb(0,0,255)"
stroke-width="4"
fill="none"
stroke-linecap="round"
stroke-linejoin="round"
filter="url(#lightUp)">
<path id="path_thought" d="M 0 512
 C 61 542, 205 625, 304 664
 C 403 703, 506 745, 493 705
 C 480 665, 214 451, 241 463
 C 268 475, 542 775, 627 765
 C 712 755, 641 505, 665 415
 C 689 325, 768 282, 749 313
 C 730 344, 588 479, 568 568
 C 548 657, 620 729, 648 760
 C 676 791, 729 714, 709 721
 C 689 728, 623 818, 547 794
 C 471 770, 289 691, 331 602
 C 373 513, 704 408, 756 348
 C 808 288, 614 300, 593 301
 C 572 302, 628 288, 650 351
 C 672 414, 720 610, 702 614
 C 684 618, 611 446, 561 371
 C 511 296, 476 201, 452 237
 C 428 273, 431 463, 441 549
 C 451 635, 440 724, 502 666
 C 564 608, 751 340, 750 257
 C 749 174, 559 144, 497 251
 C 435 358, 406 729, 439 792
 C 472 855, 675 626, 664 568
 C 653 510, 382 505, 382 503
 C 382 501, 617 564, 665 560
 C 713 556, 651 511, 624 485
 C 597 459, 448 422, 528 428
 C 608 434, 925 499, 1024 517
">
</path>
</g>
<g id="will-src"
stroke="rgb(255,0,0)"
stroke-width="4"
fill="none"
stroke-linecap="round"
stroke-linejoin="round"
filter="url(#lightUp)">
<path id="path_will" d="M 0 515
 C 60 544, 204 620, 301 659
 C 398 698, 499 750, 487 709
 C 475 668, 213 446, 242 456
 C 271 466, 547 765, 631 758
 C 715 751, 638 509, 663 421
 C 688 333, 775 287, 756 317
 C 737 347, 588 481, 566 569
 C 544 657, 619 725, 647 755
 C 675 785, 727 712, 706 720
 C 685 728, 619 817, 544 794
 C 469 771, 288 693, 329 604
 C 370 515, 698 410, 751 348
 C 804 286, 612 292, 592 293
 C 572 294, 625 288, 649 351
 C 673 414, 728 606, 711 609
 C 694 612, 617 441, 566 367
 C 515 293, 479 205, 454 241
 C 429 277, 432 462, 441 547
 C 450 632, 436 724, 497 665
 C 558 606, 745 337, 746 253
 C 747 169, 563 140, 503 247
 C 443 354, 415 724, 446 789
 C 477 854, 674 628, 660 571
 C 646 514, 377 507, 377 504
 C 377 501, 610 560, 661 557
 C 712 554, 657 514, 631 488
 C 605 462, 454 422, 533 428
 C 612 434, 926 499, 1024 517
">
</path>
</g>
<g id="awa-src"
stroke="rgb(0,255,0)"
stroke-width="4"
fill="none"
stroke-linecap="round"
stroke-linejoin="round"
filter="url(#lightUp)">
<path id="path_awa" d="M 0 514
 C 60 544, 202 623, 300 662
 C 398 701, 504 747, 492 707
 C 480 667, 213 453, 241 464
 C 269 475, 549 774, 632 764
 C 715 754, 634 503, 658 412
 C 682 321, 768 279, 750 310
 C 732 341, 588 480, 568 568
 C 548 656, 622 720, 650 750
 C 678 780, 731 712, 709 720
 C 687 728, 613 810, 538 788
 C 463 766, 292 701, 336 611
 C 380 521, 704 401, 756 339
 C 808 277, 617 296, 594 300
 C 571 304, 620 295, 642 358
 C 664 421, 717 612, 702 615
 C 687 618, 617 446, 568 371
 C 519 296, 482 204, 457 238
 C 432 272, 435 458, 443 543
 C 451 628, 438 722, 498 664
 C 558 606, 741 335, 741 252
 C 741 169, 555 139, 497 248
 C 439 357, 415 732, 449 796
 C 483 860, 682 629, 669 569
 C 656 509, 385 501, 383 498
 C 381 495, 608 559, 657 556
 C 706 553, 656 509, 630 484
 C 604 459, 449 424, 528 430
 C 607 436, 925 497, 1024 514
">
</path>
</g>
<filter id="lightUp"
filterUnits="userSpaceOnUse"
x="-100%" y="-100%" width="200%" height="200%"
color-interpolation-filters="sRGB">

<feGaussianBlur in="SourceGraphic"
stdDeviation="3" 
result="blur">
</feGaussianBlur>

<feMerge>
<feMergeNode in="blur"/>
<feMergeNode in="blur"/>
<feMergeNode in="SourceGraphic"/>
</feMerge>
</filter> 
</defs>

<rect width='1024' height='1024' fill='#000'/>

  <g>
    <use href="#thought-src" style="mix-blend-mode:lighten;"/>
    <use href="#will-src" style="mix-blend-mode:lighten;"/>
    <use href="#awa-src" style="mix-blend-mode:lighten;"/>
  </g>


</svg>