<svg width="1024" height="1024" viewBox="0 0 1024 1024"
     xmlns="http://www.w3.org/2000/svg"
     style="background:#000; isolation:isolate">

<defs>
<g id="thought-src"
stroke="rgb(0,0,255)"
stroke-width="3"
fill="none"
stroke-linecap="round"
stroke-linejoin="round"
filter="url(#lightUp)">
<path id="path_thought" d="M 0 514
 C 183 584, 437 820, 548 723
 C 659 626, 230 398, 334 222
 C 438 46, 897 125, 860 194
 C 823 263, 398 217, 222 430
 C 46 643, 227 903, 333 834
 C 439 765, 366 270, 539 223
 C 712 176, 919 533, 852 693
 C 785 853, 437 832, 338 703
 C 239 574, 423 328, 556 306
 C 689 284, 783 634, 736 638
 C 689 642, 596 405, 414 318
 C 232 231, 135 299, 190 376
 C 245 453, 501 496, 579 549
 C 657 602, 439 503, 425 536
 C 411 569, 443 656, 537 649
 C 631 642, 624 659, 707 516
 C 790 373, 887 169, 786 219
 C 685 269, 497 583, 404 665
 C 311 747, 352 561, 506 466
 C 660 371, 755 415, 867 381
 C 979 347, 908 210, 843 363
 C 778 516, 668 806, 672 839
 C 676 872, 861 682, 856 462
 C 851 242, 807 200, 656 179
 C 505 158, 436 191, 404 399
 C 372 607, 538 716, 559 804
 C 580 892, 528 667, 466 662
 C 404 657, 393 874, 372 788
 C 351 702, 324 526, 404 404
 C 484 282, 406 384, 613 421
 C 820 458, 887 483, 1024 514
">
</path>
</g>
<g id="will-src"
stroke="rgb(255,0,0)"
stroke-width="3"
fill="none"
stroke-linecap="round"
stroke-linejoin="round"
filter="url(#lightUp)">
<path id="path_will" d="M 0 512
 C 184 581, 438 818, 551 720
 C 664 622, 233 395, 339 219
 C 445 43, 906 123, 868 192
 C 830 261, 405 212, 226 425
 C 47 638, 229 901, 331 831
 C 433 761, 359 262, 532 214
 C 705 166, 915 525, 851 687
 C 787 849, 440 829, 340 700
 C 240 571, 421 324, 552 300
 C 683 276, 781 623, 733 628
 C 685 633, 589 402, 407 316
 C 225 230, 128 292, 187 369
 C 246 446, 504 493, 583 547
 C 662 601, 439 497, 425 530
 C 411 563, 447 651, 540 646
 C 633 641, 619 659, 703 515
 C 787 371, 890 167, 791 215
 C 692 263, 502 575, 407 659
 C 312 743, 353 557, 505 466
 C 657 375, 751 422, 864 387
 C 977 352, 909 212, 844 361
 C 779 510, 666 802, 668 835
 C 670 868, 850 677, 849 460
 C 848 243, 811 202, 665 184
 C 519 166, 447 199, 412 405
 C 377 611, 543 719, 560 803
 C 577 887, 523 660, 463 658
 C 403 656, 399 880, 379 796
 C 359 712, 324 531, 404 406
 C 484 281, 412 385, 619 422
 C 826 459, 889 485, 1024 516
">
</path>
</g>
<g id="awa-src"
stroke="rgb(0,255,0)"
stroke-width="3"
fill="none"
stroke-linecap="round"
stroke-linejoin="round"
filter="url(#lightUp)">
<path id="path_awa" d="M 0 514
 C 182 584, 435 822, 547 723
 C 659 624, 233 397, 337 218
 C 441 39, 897 116, 859 186
 C 821 256, 399 213, 222 428
 C 45 643, 223 900, 329 831
 C 435 762, 363 268, 539 221
 C 715 174, 925 529, 856 691
 C 787 853, 434 835, 333 706
 C 232 577, 419 329, 554 305
 C 689 281, 784 631, 737 633
 C 690 635, 596 396, 413 311
 C 230 226, 132 299, 187 377
 C 242 455, 497 494, 578 546
 C 659 598, 443 501, 429 534
 C 415 567, 442 652, 536 644
 C 630 636, 627 654, 711 509
 C 795 364, 890 158, 787 209
 C 684 260, 499 578, 403 662
 C 307 746, 347 555, 500 462
 C 653 369, 747 415, 863 383
 C 979 351, 913 212, 849 365
 C 785 518, 668 811, 670 842
 C 672 873, 856 678, 854 457
 C 852 236, 812 198, 664 179
 C 516 160, 444 192, 409 401
 C 374 610, 542 718, 560 805
 C 578 892, 523 665, 463 662
 C 403 659, 402 881, 379 795
 C 356 709, 316 532, 395 405
 C 474 278, 405 376, 615 414
 C 825 452, 888 485, 1024 520
">
</path>
</g>
<filter id="lightUp"
filterUnits="userSpaceOnUse"
x="-100%" y="-100%" width="200%" height="200%"
color-interpolation-filters="sRGB">

<feGaussianBlur in="SourceGraphic"
stdDeviation="3" 
result="blur">
</feGaussianBlur>

<feMerge>
<feMergeNode in="blur"/>
<feMergeNode in="blur"/>
<feMergeNode in="SourceGraphic"/>
</feMerge>
</filter> 
</defs>

<rect width='1024' height='1024' fill='#000'/>

  <g>
    <use href="#thought-src" style="mix-blend-mode:lighten;"/>
    <use href="#will-src" style="mix-blend-mode:lighten;"/>
    <use href="#awa-src" style="mix-blend-mode:lighten;"/>
  </g>


</svg>