<svg width="1024" height="1024" viewBox="0 0 1024 1024"
     xmlns="http://www.w3.org/2000/svg"
     style="background:#000; isolation:isolate">

<defs>
<g id="thought-src"
stroke="rgb(0,0,255)"
stroke-width="2"
fill="none"
stroke-linecap="round"
stroke-linejoin="round"
filter="url(#lightUp)">
<path id="path_thought" d="M 0 520
 C 172 458, 295 405, 517 334
 C 739 263, 642 252, 665 306
 C 688 360, 582 417, 585 496
 C 588 575, 666 504, 674 543
 C 682 582, 706 564, 609 612
 C 512 660, 348 707, 383 687
 C 418 667, 728 570, 713 552
 C 698 534, 457 679, 339 634
 C 221 589, 346 470, 358 417
 C 370 364, 306 504, 374 476
 C 442 448, 451 319, 562 332
 C 673 345, 679 488, 706 515
 C 733 542, 759 426, 644 414
 C 529 402, 443 462, 362 479
 C 281 496, 355 387, 402 466
 C 449 545, 395 665, 502 717
 C 609 769, 770 703, 723 622
 C 676 541, 403 442, 361 473
 C 319 504, 609 648, 596 715
 C 583 782, 394 792, 322 675
 C 250 558, 336 396, 380 364
 C 424 332, 354 550, 453 578
 C 552 606, 629 433, 676 447
 C 723 461, 634 627, 594 620
 C 554 613, 647 407, 557 425
 C 467 443, 353 691, 325 674
 C 297 657, 421 472, 474 375
 C 527 278, 517 319, 484 382
 C 451 445, 373 528, 374 565
 C 375 602, 373 510, 486 493
 C 599 476, 766 452, 713 515
 C 660 578, 336 737, 328 681
 C 320 625, 686 427, 690 346
 C 694 265, 360 382, 341 439
 C 322 496, 569 475, 632 517
 C 695 559, 635 504, 529 566
 C 423 628, 350 743, 315 702
 C 280 661, 335 557, 423 444
 C 511 331, 575 343, 578 364
 C 581 385, 455 424, 431 506
 C 407 588, 442 668, 505 610
 C 568 552, 615 361, 620 331
 C 625 301, 496 483, 521 520
 C 546 557, 728 437, 695 443
 C 662 449, 450 570, 423 539
 C 396 508, 623 401, 615 350
 C 607 299, 425 338, 400 386
 C 375 434, 521 449, 539 495
 C 557 541, 293 517, 455 524
 C 617 531, 834 519, 1024 516
">
</path>
</g>
<g id="will-src"
stroke="rgb(255,0,0)"
stroke-width="2"
fill="none"
stroke-linecap="round"
stroke-linejoin="round"
filter="url(#lightUp)">
<path id="path_will" d="M 0 516
 C 172 456, 296 405, 515 335
 C 734 265, 634 251, 657 306
 C 680 361, 579 421, 583 499
 C 587 577, 661 502, 670 539
 C 679 576, 707 560, 611 611
 C 515 662, 348 714, 383 691
 C 418 668, 734 563, 717 543
 C 700 523, 452 673, 332 632
 C 212 591, 340 471, 357 419
 C 374 367, 318 508, 384 477
 C 450 446, 448 314, 554 327
 C 660 340, 671 487, 703 515
 C 735 543, 763 421, 649 410
 C 535 399, 447 462, 362 482
 C 277 502, 349 390, 395 469
 C 441 548, 391 668, 501 720
 C 611 772, 773 708, 726 625
 C 679 542, 405 442, 361 472
 C 317 502, 604 645, 593 714
 C 582 783, 402 797, 329 679
 C 256 561, 331 397, 373 361
 C 415 325, 354 543, 456 572
 C 558 601, 631 432, 679 448
 C 727 464, 641 629, 599 621
 C 557 613, 646 405, 554 424
 C 462 443, 349 694, 322 677
 C 295 660, 421 472, 473 372
 C 525 272, 509 314, 478 377
 C 447 440, 376 521, 379 560
 C 382 599, 377 512, 488 495
 C 599 478, 766 448, 711 508
 C 656 568, 329 732, 324 676
 C 319 620, 690 420, 696 340
 C 702 260, 364 377, 343 436
 C 322 495, 571 475, 634 517
 C 697 559, 639 501, 532 563
 C 425 625, 349 744, 313 704
 C 277 664, 338 557, 425 442
 C 512 327, 573 339, 574 359
 C 575 379, 451 415, 428 501
 C 405 587, 443 672, 506 616
 C 569 560, 613 364, 618 334
 C 623 304, 494 487, 520 525
 C 546 563, 727 442, 696 447
 C 665 452, 453 572, 426 541
 C 399 510, 624 404, 615 353
 C 606 302, 424 341, 399 389
 C 374 437, 524 452, 540 497
 C 556 542, 286 516, 447 523
 C 608 530, 832 520, 1024 518
">
</path>
</g>
<g id="awa-src"
stroke="rgb(0,255,0)"
stroke-width="2"
fill="none"
stroke-linecap="round"
stroke-linejoin="round"
filter="url(#lightUp)">
<path id="path_awa" d="M 0 521
 C 174 458, 301 402, 521 332
 C 741 262, 640 254, 659 310
 C 678 366, 576 422, 579 500
 C 582 578, 657 510, 667 545
 C 677 580, 703 556, 609 606
 C 515 656, 351 714, 384 694
 C 417 674, 725 566, 709 546
 C 693 526, 451 676, 337 634
 C 223 592, 354 470, 367 419
 C 380 368, 310 513, 375 482
 C 440 451, 454 313, 563 326
 C 672 339, 676 495, 703 522
 C 730 549, 758 419, 644 406
 C 530 393, 443 462, 362 484
 C 281 506, 356 394, 402 472
 C 448 550, 396 666, 501 718
 C 606 770, 764 707, 718 627
 C 672 547, 407 448, 363 479
 C 319 510, 598 653, 586 719
 C 574 785, 399 795, 328 677
 C 257 559, 332 398, 374 365
 C 416 332, 353 550, 453 578
 C 553 606, 628 433, 674 448
 C 720 463, 631 631, 591 624
 C 551 617, 645 411, 555 427
 C 465 443, 348 689, 322 672
 C 296 655, 422 474, 476 376
 C 530 278, 518 317, 484 379
 C 450 441, 370 526, 373 562
 C 376 598, 381 504, 494 488
 C 607 472, 767 451, 713 514
 C 659 577, 338 737, 331 678
 C 324 619, 687 420, 693 338
 C 699 256, 369 373, 349 433
 C 329 493, 575 472, 634 517
 C 693 562, 631 504, 525 568
 C 419 632, 351 750, 315 708
 C 279 666, 328 555, 416 442
 C 504 329, 574 348, 579 368
 C 584 388, 455 421, 430 501
 C 405 581, 437 664, 503 609
 C 569 554, 620 363, 627 337
 C 634 311, 499 494, 523 530
 C 547 566, 731 442, 698 444
 C 665 446, 451 568, 423 537
 C 395 506, 625 401, 614 351
 C 603 301, 416 338, 391 386
 C 366 434, 519 449, 538 494
 C 557 539, 285 513, 447 520
 C 609 527, 832 517, 1024 516
">
</path>
</g>
<filter id="lightUp"
filterUnits="userSpaceOnUse"
x="-100%" y="-100%" width="200%" height="200%"
color-interpolation-filters="sRGB">

<feGaussianBlur in="SourceGraphic"
stdDeviation="3" 
result="blur">
</feGaussianBlur>

<feMerge>
<feMergeNode in="blur"/>
<feMergeNode in="blur"/>
<feMergeNode in="SourceGraphic"/>
</feMerge>
</filter> 
</defs>

<rect width='1024' height='1024' fill='#000'/>

  <g>
    <use href="#thought-src" style="mix-blend-mode:lighten;"/>
    <use href="#will-src" style="mix-blend-mode:lighten;"/>
    <use href="#awa-src" style="mix-blend-mode:lighten;"/>
  </g>


</svg>