<svg width="1024" height="1024" viewBox="0 0 1024 1024"
     xmlns="http://www.w3.org/2000/svg"
     style="background:#000; isolation:isolate">

<defs>
<g id="thought-src"
stroke="rgb(0,0,255)"
stroke-width="17"
fill="none"
stroke-linecap="round"
stroke-linejoin="round"
filter="url(#lightUp)">
<path id="path_thought" d="M 0 522
 C 85 552, 441 639, 511 699
 C 581 759, 483 849, 421 880
 C 359 911, 98 976, 139 882
 C 180 788, 673 384, 669 316
 C 665 248, 196 420, 115 475
 C 34 530, 33 638, 185 645
 C 337 652, 884 538, 1024 517
">
</path>
</g>
<g id="will-src"
stroke="rgb(255,0,0)"
stroke-width="17"
fill="none"
stroke-linecap="round"
stroke-linejoin="round"
filter="url(#lightUp)">
<path id="path_will" d="M 0 520
 C 85 550, 439 638, 509 699
 C 579 760, 481 857, 420 887
 C 359 917, 99 974, 141 879
 C 183 784, 677 382, 672 315
 C 667 248, 194 423, 112 479
 C 30 535, 31 646, 183 652
 C 335 658, 884 536, 1024 513
">
</path>
</g>
<g id="awa-src"
stroke="rgb(0,255,0)"
stroke-width="17"
fill="none"
stroke-linecap="round"
stroke-linejoin="round"
filter="url(#lightUp)">
<path id="path_awa" d="M 0 518
 C 86 548, 442 639, 513 700
 C 584 761, 486 854, 424 884
 C 362 914, 99 973, 141 879
 C 183 785, 681 387, 676 320
 C 671 253, 196 420, 113 475
 C 30 530, 27 644, 179 651
 C 331 658, 883 540, 1024 518
">
</path>
</g>
<filter id="lightUp"
filterUnits="userSpaceOnUse"
x="-100%" y="-100%" width="200%" height="200%"
color-interpolation-filters="sRGB">

<feGaussianBlur in="SourceGraphic"
stdDeviation="3" 
result="blur">
</feGaussianBlur>

<feMerge>
<feMergeNode in="blur"/>
<feMergeNode in="blur"/>
<feMergeNode in="SourceGraphic"/>
</feMerge>
</filter> 
</defs>

<rect width='1024' height='1024' fill='#000'/>

  <g>
    <use href="#thought-src" style="mix-blend-mode:lighten;"/>
    <use href="#will-src" style="mix-blend-mode:lighten;"/>
    <use href="#awa-src" style="mix-blend-mode:lighten;"/>
  </g>


</svg>