<svg width="1024" height="1024" viewBox="0 0 1024 1024"
     xmlns="http://www.w3.org/2000/svg"
     style="background:#000; isolation:isolate">

<defs>
<g id="thought-src"
stroke="rgb(0,0,255)"
stroke-width="3"
fill="none"
stroke-linecap="round"
stroke-linejoin="round"
filter="url(#lightUp)">
<path id="path_thought" d="M 0 519
 C 607 346, -101 324, 607 346
 C 1315 368, 762 276, 708 541
 C 654 806, 834 641, 553 611
 C 272 581, 601 762, 427 511
 C 253 260, 400 327, 379 360
 C 358 393, 225 251, 406 544
 C 587 837, 651 610, 560 653
 C 469 696, 476 743, 315 587
 C 154 431, 242 464, 399 497
 C 556 530, 421 670, 472 620
 C 523 570, 375 706, 450 447
 C 525 188, 639 497, 547 361
 C 455 225, 308 129, 358 311
 C 408 493, 389 367, 597 543
 C 805 719, 521 520, 566 487
 C 611 454, 564 357, 642 510
 C 720 663, 725 637, 644 640
 C 563 643, 832 519, 561 513
 C 290 507, 626 685, 373 634
 C 120 583, 167 451, 308 462
 C 449 473, 508 742, 514 645
 C 520 548, 320 315, 314 365
 C 308 415, 299 626, 508 695
 C 717 764, 518 469, 523 434
 C 528 399, 532 389, 513 660
 C 494 931, 463 984, 504 705
 C 545 426, 506 474, 554 381
 C 602 288, 658 304, 552 612
 C 446 920, 411 859, 448 689
 C 485 519, 535 800, 589 442
 C 643 84, 696 330, 502 331
 C 308 332, 252 97, 395 443
 C 538 789, 371 422, 645 677
 C 919 932, 619 809, 669 698
 C 719 587, 915 673, 695 566
 C 475 459, 775 470, 449 591
 C 123 712, 377 571, 369 687
 C 361 803, -214 879, 441 707
 C 1096 535, 441 707, 1024 515
">
</path>
</g>
<g id="will-src"
stroke="rgb(255,0,0)"
stroke-width="3"
fill="none"
stroke-linecap="round"
stroke-linejoin="round"
filter="url(#lightUp)">
<path id="path_will" d="M 0 517
 C 597 347, -112 316, 597 347
 C 1306 378, 756 287, 709 548
 C 662 809, 829 645, 550 608
 C 271 571, 608 761, 430 511
 C 252 261, 391 331, 372 358
 C 353 385, 224 236, 411 538
 C 598 840, 649 605, 559 660
 C 469 715, 479 758, 321 593
 C 163 428, 254 467, 401 495
 C 548 523, 422 669, 468 621
 C 514 573, 365 713, 447 447
 C 529 181, 636 485, 550 355
 C 464 225, 320 127, 361 317
 C 402 507, 386 373, 591 545
 C 796 717, 509 523, 566 489
 C 623 455, 566 363, 648 511
 C 730 659, 735 636, 648 637
 C 561 638, 832 518, 561 512
 C 290 506, 632 673, 377 631
 C 122 589, 164 461, 306 470
 C 448 479, 507 741, 519 640
 C 531 539, 332 317, 318 369
 C 304 421, 290 629, 505 692
 C 720 755, 517 468, 533 432
 C 549 396, 548 384, 521 656
 C 494 928, 480 983, 506 704
 C 532 425, 500 470, 547 377
 C 594 284, 655 307, 553 611
 C 451 915, 405 857, 445 681
 C 485 505, 534 787, 593 435
 C 652 83, 702 327, 504 329
 C 306 331, 258 86, 395 437
 C 532 788, 368 417, 641 680
 C 914 943, 615 806, 668 700
 C 721 594, 915 685, 694 574
 C 473 463, 777 480, 447 589
 C 117 698, 374 568, 364 683
 C 354 798, -223 871, 437 704
 C 1097 537, 437 704, 1024 516
">
</path>
</g>
<g id="awa-src"
stroke="rgb(0,255,0)"
stroke-width="3"
fill="none"
stroke-linecap="round"
stroke-linejoin="round"
filter="url(#lightUp)">
<path id="path_awa" d="M 0 521
 C 604 349, -109 324, 604 349
 C 1317 374, 766 284, 713 546
 C 660 808, 842 649, 551 611
 C 260 573, 599 761, 422 508
 C 245 255, 383 320, 374 358
 C 365 396, 228 249, 413 546
 C 598 843, 654 608, 559 655
 C 464 702, 484 750, 318 593
 C 152 436, 240 476, 393 498
 C 546 520, 413 659, 471 615
 C 529 571, 368 717, 451 454
 C 534 191, 643 492, 554 352
 C 465 212, 322 120, 362 314
 C 402 508, 392 367, 594 546
 C 796 725, 514 531, 564 493
 C 614 455, 560 363, 644 508
 C 728 653, 740 632, 648 638
 C 556 644, 822 519, 552 514
 C 282 509, 624 686, 378 633
 C 132 580, 166 452, 306 461
 C 446 470, 512 734, 518 642
 C 524 550, 325 310, 312 369
 C 299 428, 288 636, 505 701
 C 722 766, 523 481, 529 434
 C 535 387, 543 384, 511 654
 C 479 924, 456 980, 497 704
 C 538 428, 489 469, 552 378
 C 615 287, 668 307, 560 613
 C 452 919, 414 857, 444 684
 C 474 511, 534 799, 590 440
 C 646 81, 701 323, 500 325
 C 299 327, 239 85, 389 442
 C 539 799, 367 432, 650 682
 C 933 932, 635 801, 672 692
 C 709 583, 908 676, 687 573
 C 466 470, 774 470, 451 589
 C 128 708, 375 572, 364 692
 C 353 812, -220 889, 440 709
 C 1100 529, 440 709, 1024 512
">
</path>
</g>
<filter id="lightUp"
filterUnits="userSpaceOnUse"
x="-100%" y="-100%" width="200%" height="200%"
color-interpolation-filters="sRGB">

<feGaussianBlur in="SourceGraphic"
stdDeviation="3" 
result="blur">
</feGaussianBlur>

<feMerge>
<feMergeNode in="blur"/>
<feMergeNode in="blur"/>
<feMergeNode in="SourceGraphic"/>
</feMerge>
</filter> 
</defs>

<rect width='1024' height='1024' fill='#000'/>

  <g>
    <use href="#thought-src" style="mix-blend-mode:lighten;"/>
    <use href="#will-src" style="mix-blend-mode:lighten;"/>
    <use href="#awa-src" style="mix-blend-mode:lighten;"/>
  </g>


</svg>