<svg width="1024" height="1024" viewBox="0 0 1024 1024"
     xmlns="http://www.w3.org/2000/svg"
     style="background:#000; isolation:isolate">

<defs>
<g id="thought-src"
stroke="rgb(0,0,255)"
stroke-width="5"
fill="none"
stroke-linecap="round"
stroke-linejoin="round"
filter="url(#lightUp)">
<path id="path_thought" d="M 0 515
 C 825 688, 599 461, 825 688
 C 1051 915, 633 617, 226 742
 C -181 867, 393 829, 418 813
 C 443 797, 363 970, 251 726
 C 139 482, -252 530, 306 569
 C 864 608, 485 782, 809 765
 C 1133 748, 847 885, 630 552
 C 413 219, 930 752, 592 432
 C 254 112, 72 14, 292 232
 C 512 450, 749 673, 812 650
 C 875 627, 522 59, 355 209
 C 188 359, 236 295, 645 800
 C 1054 1305, 681 1200, 764 714
 C 847 228, 794 481, 728 314
 C 662 147, 757 338, 698 547
 C 639 756, 802 554, 669 523
 C 536 492, 429 816, 565 516
 C 701 216, 1109 -16, 805 223
 C 501 462, 42 459, 261 755
 C 480 1051, 261 755, 1024 519
">
</path>
</g>
<g id="will-src"
stroke="rgb(255,0,0)"
stroke-width="5"
fill="none"
stroke-linecap="round"
stroke-linejoin="round"
filter="url(#lightUp)">
<path id="path_will" d="M 0 519
 C 816 685, 585 454, 816 685
 C 1047 916, 629 614, 231 750
 C -167 886, 394 850, 418 821
 C 442 792, 373 978, 255 721
 C 137 464, -253 522, 300 564
 C 853 606, 479 771, 808 763
 C 1137 755, 847 886, 629 556
 C 411 226, 926 758, 590 433
 C 254 108, 77 7, 293 231
 C 509 455, 749 673, 806 657
 C 863 641, 512 71, 350 215
 C 188 359, 229 294, 644 801
 C 1059 1308, 677 1211, 765 722
 C 853 233, 806 494, 732 312
 C 658 130, 753 324, 691 540
 C 629 756, 788 555, 670 528
 C 552 501, 444 821, 573 513
 C 702 205, 1108 -31, 799 220
 C 490 471, 39 464, 264 764
 C 489 1064, 264 764, 1024 520
">
</path>
</g>
<g id="awa-src"
stroke="rgb(0,255,0)"
stroke-width="5"
fill="none"
stroke-linecap="round"
stroke-linejoin="round"
filter="url(#lightUp)">
<path id="path_awa" d="M 0 515
 C 818 692, 585 459, 818 692
 C 1051 925, 629 622, 233 748
 C -163 874, 407 842, 422 818
 C 437 794, 366 975, 248 724
 C 130 473, -252 526, 304 567
 C 860 608, 473 781, 804 765
 C 1135 749, 840 883, 635 551
 C 430 219, 941 756, 599 433
 C 257 110, 81 4, 293 228
 C 505 452, 758 669, 811 657
 C 864 645, 514 76, 346 216
 C 178 356, 229 289, 643 797
 C 1057 1305, 666 1209, 760 724
 C 854 239, 802 491, 737 312
 C 672 133, 760 332, 695 545
 C 630 758, 801 557, 672 525
 C 543 493, 438 812, 566 513
 C 694 214, 1108 -23, 800 226
 C 492 475, 34 473, 258 762
 C 482 1051, 258 762, 1024 515
">
</path>
</g>
<filter id="lightUp"
filterUnits="userSpaceOnUse"
x="-100%" y="-100%" width="200%" height="200%"
color-interpolation-filters="sRGB">

<feGaussianBlur in="SourceGraphic"
stdDeviation="3" 
result="blur">
</feGaussianBlur>

<feMerge>
<feMergeNode in="blur"/>
<feMergeNode in="blur"/>
<feMergeNode in="SourceGraphic"/>
</feMerge>
</filter> 
</defs>

<rect width='1024' height='1024' fill='#000'/>

  <g>
    <use href="#thought-src" style="mix-blend-mode:lighten;"/>
    <use href="#will-src" style="mix-blend-mode:lighten;"/>
    <use href="#awa-src" style="mix-blend-mode:lighten;"/>
  </g>


</svg>