<svg width="1024" height="1024" viewBox="0 0 1024 1024"
     xmlns="http://www.w3.org/2000/svg"
     style="background:#000; isolation:isolate">

<defs>
<g id="thought-src"
stroke="rgb(0,0,255)"
stroke-width="3"
fill="none"
stroke-linecap="round"
stroke-linejoin="round"
filter="url(#lightUp)">
<path id="path_thought" d="M 0 522
 C 414 510, 183 714, 414 510
 C 645 306, 31 296, 231 318
 C 431 340, 527 -59, 614 532
 C 701 1123, 705 1218, 318 909
 C -69 600, -306 262, 227 223
 C 760 184, 364 873, 851 870
 C 1338 867, 943 309, 714 220
 C 485 131, 636 232, 622 781
 C 608 1330, 476 684, 700 769
 C 924 854, 1362 998, 846 866
 C 330 734, 503 829, 184 637
 C -135 445, 461 890, 527 674
 C 593 458, 166 260, 250 421
 C 334 582, 169 487, 611 835
 C 1053 1183, 1043 1224, 692 769
 C 341 314, 236 727, 260 380
 C 284 33, 145 633, 716 422
 C 1287 211, 1170 322, 831 169
 C 492 16, 909 -90, 377 269
 C -155 628, 214 545, 299 528
 C 384 511, 595 455, 462 252
 C 329 49, 89 215, 166 325
 C 243 435, 414 481, 539 362
 C 664 243, 610 431, 291 206
 C -28 -19, -292 -9, 220 137
 C 732 283, 559 -221, 803 352
 C 1047 925, 874 277, 464 710
 C 54 1143, 317 1095, 393 785
 C 469 475, 479 333, 540 400
 C 601 467, 792 722, 454 852
 C 116 982, 9 1069, 202 530
 C 395 -9, -57 267, 647 313
 C 1351 359, 910 323, 906 576
 C 902 829, 1150 813, 643 566
 C 136 319, 892 719, 399 329
 C -94 -61, 315 -149, 150 176
 C -15 501, 0 93, 234 654
 C 468 1215, 417 1243, 384 737
 C 351 231, -162 640, 201 148
 C 564 -344, -76 -119, 747 245
 C 1570 609, 747 245, 1024 512
">
</path>
</g>
<g id="will-src"
stroke="rgb(255,0,0)"
stroke-width="3"
fill="none"
stroke-linecap="round"
stroke-linejoin="round"
filter="url(#lightUp)">
<path id="path_will" d="M 0 516
 C 412 519, 183 709, 412 519
 C 641 329, 29 310, 229 326
 C 429 342, 516 -49, 612 535
 C 708 1119, 714 1219, 325 910
 C -64 601, -300 266, 223 226
 C 746 186, 363 874, 848 870
 C 1333 866, 937 306, 708 222
 C 479 138, 625 236, 619 786
 C 613 1336, 482 689, 702 772
 C 922 855, 1361 1010, 839 869
 C 317 728, 496 833, 180 631
 C -136 429, 455 880, 523 667
 C 591 454, 163 257, 248 418
 C 333 579, 163 479, 608 828
 C 1053 1177, 1042 1209, 693 767
 C 344 325, 235 723, 259 386
 C 283 49, 143 645, 717 430
 C 1291 215, 1169 334, 833 171
 C 497 8, 923 -89, 381 267
 C -161 623, 208 540, 291 527
 C 374 514, 589 448, 464 254
 C 339 60, 90 223, 166 333
 C 242 443, 416 492, 540 364
 C 664 236, 608 434, 290 205
 C -28 -24, -292 -5, 222 135
 C 736 275, 563 -230, 804 345
 C 1045 920, 875 272, 463 710
 C 51 1148, 317 1089, 392 783
 C 467 477, 482 341, 538 404
 C 594 467, 790 724, 448 846
 C 106 968, 1 1055, 196 526
 C 391 -3, -60 272, 643 317
 C 1346 362, 892 322, 899 571
 C 906 820, 1154 807, 650 566
 C 146 325, 898 725, 395 330
 C -108 -65, 307 -160, 147 171
 C -13 502, 1 86, 235 661
 C 469 1236, 410 1267, 381 746
 C 352 225, -161 641, 206 140
 C 573 -361, -70 -133, 748 245
 C 1566 623, 748 245, 1024 518
">
</path>
</g>
<g id="awa-src"
stroke="rgb(0,255,0)"
stroke-width="3"
fill="none"
stroke-linecap="round"
stroke-linejoin="round"
filter="url(#lightUp)">
<path id="path_awa" d="M 0 521
 C 411 511, 179 712, 411 511
 C 643 310, 31 297, 232 320
 C 433 343, 518 -50, 612 534
 C 706 1118, 713 1214, 326 904
 C -61 594, -300 261, 225 224
 C 750 187, 369 867, 851 867
 C 1333 867, 936 313, 707 224
 C 478 135, 632 226, 622 778
 C 612 1330, 474 679, 697 776
 C 920 873, 1363 1023, 845 875
 C 327 727, 495 833, 179 628
 C -137 423, 451 879, 529 670
 C 607 461, 175 262, 257 419
 C 339 576, 175 477, 611 827
 C 1047 1177, 1046 1215, 693 769
 C 340 323, 227 726, 258 381
 C 289 36, 145 630, 724 424
 C 1303 218, 1176 326, 837 175
 C 498 24, 924 -80, 385 273
 C -154 626, 223 546, 298 528
 C 373 510, 592 453, 460 255
 C 328 57, 83 218, 166 330
 C 249 442, 421 492, 543 367
 C 665 242, 616 439, 288 205
 C -40 -29, -301 -14, 215 133
 C 731 280, 554 -216, 804 352
 C 1054 920, 874 266, 465 701
 C 56 1136, 330 1086, 395 787
 C 460 488, 479 344, 530 402
 C 581 460, 777 717, 446 845
 C 115 973, 5 1059, 199 530
 C 393 1, -69 277, 640 316
 C 1349 355, 899 321, 908 569
 C 917 817, 1164 808, 649 564
 C 134 320, 896 713, 393 325
 C -110 -63, 304 -154, 146 176
 C -12 506, -1 93, 235 655
 C 471 1217, 415 1244, 382 738
 C 349 232, -169 637, 202 149
 C 573 -339, -69 -122, 753 250
 C 1575 622, 753 250, 1024 521
">
</path>
</g>
<filter id="lightUp"
filterUnits="userSpaceOnUse"
x="-100%" y="-100%" width="200%" height="200%"
color-interpolation-filters="sRGB">

<feGaussianBlur in="SourceGraphic"
stdDeviation="3" 
result="blur">
</feGaussianBlur>

<feMerge>
<feMergeNode in="blur"/>
<feMergeNode in="blur"/>
<feMergeNode in="SourceGraphic"/>
</feMerge>
</filter> 
</defs>

<rect width='1024' height='1024' fill='#000'/>

  <g>
    <use href="#thought-src" style="mix-blend-mode:lighten;"/>
    <use href="#will-src" style="mix-blend-mode:lighten;"/>
    <use href="#awa-src" style="mix-blend-mode:lighten;"/>
  </g>


</svg>