<svg width="1024" height="1024" viewBox="0 0 1024 1024"
     xmlns="http://www.w3.org/2000/svg"
     style="background:#000; isolation:isolate">

<defs>
<g id="thought-src"
stroke="rgb(0,0,255)"
stroke-width="3"
fill="none"
stroke-linecap="round"
stroke-linejoin="round"
filter="url(#lightUp)">
<path id="path_thought" d="M 0 515
 C 121 473, 444 325, 606 304
 C 768 283, 864 363, 808 409
 C 752 455, 368 498, 327 536
 C 286 574, 591 613, 601 599
 C 611 585, 441 448, 378 466
 C 315 484, 281 668, 287 690
 C 293 712, 327 608, 409 578
 C 491 548, 625 546, 695 539
 C 765 532, 808 531, 757 541
 C 706 551, 555 539, 442 590
 C 329 641, 192 828, 190 794
 C 188 760, 412 414, 432 421
 C 452 428, 230 825, 292 829
 C 354 833, 747 476, 740 439
 C 733 402, 244 619, 256 642
 C 268 665, 796 613, 800 553
 C 804 493, 345 342, 277 344
 C 209 346, 401 480, 462 563
 C 523 646, 616 800, 583 761
 C 550 722, 348 435, 296 367
 C 244 299, 283 419, 325 423
 C 367 427, 498 345, 505 389
 C 512 433, 297 644, 360 645
 C 423 646, 822 474, 821 394
 C 820 314, 356 279, 354 244
 C 352 209, 759 124, 809 217
 C 859 310, 606 701, 603 711
 C 600 721, 750 325, 793 265
 C 836 205, 892 364, 817 411
 C 742 458, 377 478, 418 500
 C 459 522, 903 516, 1024 520
">
</path>
</g>
<g id="will-src"
stroke="rgb(255,0,0)"
stroke-width="3"
fill="none"
stroke-linecap="round"
stroke-linejoin="round"
filter="url(#lightUp)">
<path id="path_will" d="M 0 513
 C 120 471, 438 326, 599 303
 C 760 280, 859 354, 805 400
 C 751 446, 370 492, 330 531
 C 290 570, 596 608, 607 595
 C 618 582, 450 448, 387 467
 C 324 486, 290 665, 293 688
 C 296 711, 323 609, 404 580
 C 485 551, 626 551, 696 543
 C 766 535, 806 530, 756 540
 C 706 550, 557 542, 444 593
 C 331 644, 194 831, 190 796
 C 186 761, 405 411, 426 417
 C 447 423, 234 822, 296 826
 C 358 830, 745 475, 737 438
 C 729 401, 243 617, 256 640
 C 269 663, 798 613, 803 553
 C 808 493, 348 339, 280 341
 C 212 343, 402 481, 463 565
 C 524 649, 620 801, 586 760
 C 552 719, 345 430, 294 362
 C 243 294, 288 416, 329 422
 C 370 428, 493 347, 499 391
 C 505 435, 296 640, 360 640
 C 424 640, 819 470, 817 391
 C 815 312, 355 279, 352 243
 C 349 207, 754 117, 804 211
 C 854 305, 605 703, 604 713
 C 603 723, 759 321, 801 259
 C 843 197, 893 356, 816 405
 C 739 454, 375 480, 417 503
 C 459 526, 903 515, 1024 518
">
</path>
</g>
<g id="awa-src"
stroke="rgb(0,255,0)"
stroke-width="3"
fill="none"
stroke-linecap="round"
stroke-linejoin="round"
filter="url(#lightUp)">
<path id="path_awa" d="M 0 521
 C 119 478, 435 327, 596 304
 C 757 281, 857 359, 803 404
 C 749 449, 366 492, 326 531
 C 286 570, 590 613, 602 601
 C 614 589, 445 452, 384 471
 C 323 490, 291 673, 296 696
 C 301 719, 327 616, 407 585
 C 487 554, 624 548, 694 539
 C 764 530, 805 526, 756 538
 C 707 550, 560 546, 447 597
 C 334 648, 193 830, 189 795
 C 185 760, 403 417, 425 424
 C 447 431, 235 829, 297 832
 C 359 835, 745 479, 736 441
 C 727 403, 240 618, 253 641
 C 266 664, 798 615, 802 555
 C 806 495, 344 340, 275 343
 C 206 346, 393 486, 455 570
 C 517 654, 619 802, 587 761
 C 555 720, 346 434, 294 366
 C 242 298, 285 415, 327 421
 C 369 427, 499 351, 505 394
 C 511 437, 291 638, 355 637
 C 419 636, 824 469, 823 390
 C 822 311, 355 279, 351 243
 C 347 207, 753 117, 804 211
 C 855 305, 605 706, 604 715
 C 603 724, 758 319, 800 258
 C 842 197, 892 360, 815 408
 C 738 456, 373 477, 415 498
 C 457 519, 902 511, 1024 514
">
</path>
</g>
<filter id="lightUp"
filterUnits="userSpaceOnUse"
x="-100%" y="-100%" width="200%" height="200%"
color-interpolation-filters="sRGB">

<feGaussianBlur in="SourceGraphic"
stdDeviation="3" 
result="blur">
</feGaussianBlur>

<feMerge>
<feMergeNode in="blur"/>
<feMergeNode in="blur"/>
<feMergeNode in="SourceGraphic"/>
</feMerge>
</filter> 
</defs>

<rect width='1024' height='1024' fill='#000'/>

  <g>
    <use href="#thought-src" style="mix-blend-mode:lighten;"/>
    <use href="#will-src" style="mix-blend-mode:lighten;"/>
    <use href="#awa-src" style="mix-blend-mode:lighten;"/>
  </g>


</svg>