<svg width="1024" height="1024" viewBox="0 0 1024 1024"
     xmlns="http://www.w3.org/2000/svg"
     style="background:#000; isolation:isolate">

<defs>
<g id="thought-src"
stroke="rgb(0,0,255)"
stroke-width="3"
fill="none"
stroke-linecap="round"
stroke-linejoin="round"
filter="url(#lightUp)">
<path id="path_thought" d="M 0 512
 C 45 529, 323 689, 402 663
 C 481 637, 681 258, 711 277
 C 741 296, 724 778, 672 835
 C 620 892, 230 813, 241 787
 C 252 761, 703 666, 767 605
 C 831 544, 864 241, 816 239
 C 768 237, 406 572, 336 584
 C 266 596, 203 357, 184 343
 C 165 329, 127 459, 167 462
 C 207 465, 509 329, 545 372
 C 581 415, 458 864, 489 853
 C 520 842, 841 312, 828 272
 C 815 232, 424 463, 375 496
 C 326 529, 363 603, 385 571
 C 407 539, 539 236, 569 210
 C 599 184, 648 301, 655 337
 C 662 373, 666 502, 630 538
 C 594 574, 368 678, 333 659
 C 298 640, 337 362, 319 368
 C 301 374, 123 715, 167 715
 C 211 715, 661 377, 712 371
 C 763 365, 671 663, 630 659
 C 589 655, 358 360, 342 334
 C 326 308, 457 411, 485 421
 C 513 431, 591 435, 598 422
 C 605 409, 520 306, 548 302
 C 576 298, 858 380, 848 388
 C 838 396, 469 368, 462 375
 C 455 382, 741 466, 784 449
 C 827 432, 843 251, 848 224
 C 853 197, 864 157, 833 205
 C 802 253, 576 623, 569 655
 C 562 687, 715 508, 766 492
 C 817 476, 995 512, 1024 514
">
</path>
</g>
<g id="will-src"
stroke="rgb(255,0,0)"
stroke-width="3"
fill="none"
stroke-linecap="round"
stroke-linejoin="round"
filter="url(#lightUp)">
<path id="path_will" d="M 0 519
 C 44 535, 312 694, 392 667
 C 472 640, 685 261, 716 280
 C 747 299, 721 780, 667 837
 C 613 894, 221 815, 232 789
 C 243 763, 704 659, 768 599
 C 832 539, 860 250, 812 249
 C 764 248, 403 579, 334 589
 C 265 599, 207 356, 188 342
 C 169 328, 126 463, 165 465
 C 204 467, 503 320, 538 363
 C 573 406, 450 864, 482 854
 C 514 844, 835 314, 823 275
 C 811 236, 421 473, 372 505
 C 323 537, 363 596, 385 563
 C 407 530, 540 231, 569 205
 C 598 179, 642 292, 649 329
 C 656 366, 666 499, 631 536
 C 596 573, 368 680, 333 661
 C 298 642, 334 357, 315 364
 C 296 371, 120 720, 163 721
 C 206 722, 654 378, 706 372
 C 758 366, 672 672, 631 667
 C 590 662, 354 356, 338 328
 C 322 300, 460 407, 488 417
 C 516 427, 585 429, 591 416
 C 597 403, 518 302, 546 299
 C 574 296, 857 377, 847 385
 C 837 393, 464 362, 458 369
 C 452 376, 747 461, 790 445
 C 833 429, 842 252, 847 225
 C 852 198, 867 152, 836 201
 C 805 250, 578 631, 570 663
 C 562 695, 718 505, 768 489
 C 818 473, 996 513, 1024 516
">
</path>
</g>
<g id="awa-src"
stroke="rgb(0,255,0)"
stroke-width="3"
fill="none"
stroke-linecap="round"
stroke-linejoin="round"
filter="url(#lightUp)">
<path id="path_awa" d="M 0 520
 C 44 536, 317 696, 397 668
 C 477 640, 685 253, 716 272
 C 747 291, 729 785, 676 842
 C 623 899, 229 811, 240 784
 C 251 757, 708 659, 771 599
 C 834 539, 860 242, 811 241
 C 762 240, 399 577, 330 589
 C 261 601, 205 359, 187 345
 C 169 331, 129 463, 168 465
 C 207 467, 502 322, 537 365
 C 572 408, 451 862, 483 851
 C 515 840, 836 308, 824 270
 C 812 232, 422 472, 374 505
 C 326 538, 366 604, 388 571
 C 410 538, 540 232, 569 206
 C 598 180, 641 300, 648 337
 C 655 374, 670 504, 635 540
 C 600 576, 364 684, 329 665
 C 294 646, 338 359, 320 365
 C 302 371, 120 719, 163 720
 C 206 721, 654 383, 706 377
 C 758 371, 675 669, 634 664
 C 593 659, 354 360, 338 333
 C 322 306, 464 411, 492 421
 C 520 431, 586 434, 592 420
 C 598 406, 516 301, 545 297
 C 574 293, 865 373, 855 381
 C 845 389, 467 361, 459 369
 C 451 377, 740 466, 784 449
 C 828 432, 845 247, 851 220
 C 857 193, 867 158, 835 207
 C 803 256, 571 628, 563 659
 C 555 690, 711 500, 762 484
 C 813 468, 995 510, 1024 513
">
</path>
</g>
<filter id="lightUp"
filterUnits="userSpaceOnUse"
x="-100%" y="-100%" width="200%" height="200%"
color-interpolation-filters="sRGB">

<feGaussianBlur in="SourceGraphic"
stdDeviation="3" 
result="blur">
</feGaussianBlur>

<feMerge>
<feMergeNode in="blur"/>
<feMergeNode in="blur"/>
<feMergeNode in="SourceGraphic"/>
</feMerge>
</filter> 
</defs>

<rect width='1024' height='1024' fill='#000'/>

  <g>
    <use href="#thought-src" style="mix-blend-mode:lighten;"/>
    <use href="#will-src" style="mix-blend-mode:lighten;"/>
    <use href="#awa-src" style="mix-blend-mode:lighten;"/>
  </g>


</svg>