<svg width="1024" height="1024" viewBox="0 0 1024 1024"
     xmlns="http://www.w3.org/2000/svg"
     style="background:#000; isolation:isolate">

<defs>
<g id="thought-src"
stroke="rgb(0,0,255)"
stroke-width="3"
fill="none"
stroke-linecap="round"
stroke-linejoin="round"
filter="url(#lightUp)">
<path id="path_thought" d="M 0 513
 C 24 509, 192 452, 219 473
 C 246 494, 182 660, 246 698
 C 310 736, 792 807, 798 811
 C 804 815, 298 735, 296 731
 C 294 727, 769 813, 778 773
 C 787 733, 401 382, 380 372
 C 359 362, 600 662, 586 687
 C 572 712, 230 606, 251 593
 C 272 580, 718 551, 772 572
 C 826 593, 800 819, 738 784
 C 676 749, 250 314, 218 254
 C 186 194, 388 225, 452 248
 C 516 271, 792 452, 792 464
 C 792 476, 474 359, 454 354
 C 434 349, 596 407, 614 422
 C 632 437, 605 481, 620 492
 C 635 503, 787 518, 749 524
 C 711 530, 324 574, 280 549
 C 236 524, 334 318, 356 302
 C 378 286, 461 376, 474 401
 C 487 426, 498 519, 473 525
 C 448 531, 278 448, 252 454
 C 226 460, 190 564, 239 581
 C 288 598, 641 604, 689 603
 C 737 602, 672 589, 674 576
 C 676 563, 687 479, 704 489
 C 721 499, 879 640, 830 668
 C 781 696, 302 758, 262 745
 C 222 732, 429 549, 470 553
 C 511 557, 623 815, 627 780
 C 631 745, 489 266, 509 236
 C 529 206, 825 455, 810 509
 C 795 563, 391 722, 372 720
 C 353 718, 566 510, 638 487
 C 710 464, 981 510, 1024 513
">
</path>
</g>
<g id="will-src"
stroke="rgb(255,0,0)"
stroke-width="3"
fill="none"
stroke-linecap="round"
stroke-linejoin="round"
filter="url(#lightUp)">
<path id="path_will" d="M 0 515
 C 24 510, 192 446, 220 467
 C 248 488, 184 666, 248 704
 C 312 742, 790 806, 794 809
 C 798 812, 291 731, 288 727
 C 285 723, 760 816, 771 776
 C 782 736, 405 379, 384 369
 C 363 359, 597 663, 583 688
 C 569 713, 234 603, 255 591
 C 276 579, 717 561, 770 582
 C 823 603, 797 815, 736 779
 C 675 743, 252 314, 221 255
 C 190 196, 390 221, 454 244
 C 518 267, 794 454, 795 466
 C 796 478, 481 356, 461 351
 C 441 346, 594 406, 612 422
 C 630 438, 610 487, 625 498
 C 640 509, 784 520, 745 525
 C 706 530, 317 569, 274 544
 C 231 519, 340 319, 362 303
 C 384 287, 464 374, 476 398
 C 488 422, 492 510, 467 517
 C 442 524, 280 457, 255 463
 C 230 469, 194 559, 241 575
 C 288 591, 632 607, 681 607
 C 730 607, 674 587, 678 574
 C 682 561, 697 479, 714 490
 C 731 501, 882 644, 832 672
 C 782 700, 305 756, 265 742
 C 225 728, 434 543, 474 547
 C 514 551, 619 816, 624 781
 C 629 746, 496 264, 517 233
 C 538 202, 825 448, 809 502
 C 793 556, 395 719, 376 717
 C 357 715, 565 510, 637 488
 C 709 466, 981 512, 1024 515
">
</path>
</g>
<g id="awa-src"
stroke="rgb(0,255,0)"
stroke-width="3"
fill="none"
stroke-linecap="round"
stroke-linejoin="round"
filter="url(#lightUp)">
<path id="path_awa" d="M 0 519
 C 25 513, 201 448, 228 469
 C 255 490, 183 666, 246 704
 C 309 742, 791 811, 796 814
 C 801 817, 292 733, 290 729
 C 288 725, 768 814, 779 774
 C 790 734, 408 377, 386 368
 C 364 359, 597 664, 583 689
 C 569 714, 236 603, 257 591
 C 278 579, 717 558, 770 579
 C 823 600, 797 814, 736 779
 C 675 744, 251 322, 220 262
 C 189 202, 397 216, 461 239
 C 525 262, 800 456, 799 468
 C 798 480, 476 356, 456 351
 C 436 346, 598 406, 616 422
 C 634 438, 603 483, 618 495
 C 633 507, 790 526, 752 532
 C 714 538, 317 573, 273 547
 C 229 521, 336 317, 359 301
 C 382 285, 469 376, 481 400
 C 493 424, 496 514, 471 520
 C 446 526, 278 448, 252 455
 C 226 462, 186 565, 234 582
 C 282 599, 634 612, 683 611
 C 732 610, 675 587, 677 573
 C 679 559, 688 472, 705 483
 C 722 494, 882 639, 834 668
 C 786 697, 311 756, 271 743
 C 231 730, 433 545, 473 548
 C 513 551, 627 809, 632 774
 C 637 739, 498 263, 517 233
 C 536 203, 823 448, 807 502
 C 791 556, 394 718, 375 717
 C 356 716, 566 518, 638 496
 C 710 474, 981 516, 1024 519
">
</path>
</g>
<filter id="lightUp"
filterUnits="userSpaceOnUse"
x="-100%" y="-100%" width="200%" height="200%"
color-interpolation-filters="sRGB">

<feGaussianBlur in="SourceGraphic"
stdDeviation="3" 
result="blur">
</feGaussianBlur>

<feMerge>
<feMergeNode in="blur"/>
<feMergeNode in="blur"/>
<feMergeNode in="SourceGraphic"/>
</feMerge>
</filter> 
</defs>

<rect width='1024' height='1024' fill='#000'/>

  <g>
    <use href="#thought-src" style="mix-blend-mode:lighten;"/>
    <use href="#will-src" style="mix-blend-mode:lighten;"/>
    <use href="#awa-src" style="mix-blend-mode:lighten;"/>
  </g>


</svg>