<svg width="1024" height="1024" viewBox="0 0 1024 1024"
     xmlns="http://www.w3.org/2000/svg"
     style="background:#000; isolation:isolate">

<defs>
<g id="thought-src"
stroke="rgb(0,0,255)"
stroke-width="4"
fill="none"
stroke-linecap="round"
stroke-linejoin="round"
filter="url(#lightUp)">
<path id="path_thought" d="M 0 518
 C 53 491, 269 299, 372 331
 C 475 363, 707 686, 723 742
 C 739 798, 526 788, 487 725
 C 448 662, 429 318, 450 301
 C 471 284, 657 580, 634 605
 C 611 630, 300 498, 291 473
 C 282 448, 565 454, 572 431
 C 579 408, 332 284, 340 315
 C 348 346, 617 641, 626 645
 C 635 649, 419 323, 405 342
 C 391 361, 471 776, 525 777
 C 579 778, 809 398, 780 348
 C 751 298, 393 375, 319 429
 C 245 483, 273 734, 262 727
 C 251 720, 174 444, 245 379
 C 316 314, 695 255, 758 272
 C 821 289, 742 453, 683 499
 C 624 545, 401 557, 344 596
 C 287 635, 235 755, 282 771
 C 329 787, 653 740, 675 705
 C 697 670, 467 586, 435 524
 C 403 462, 422 243, 448 272
 C 474 301, 627 711, 614 729
 C 601 747, 402 444, 360 401
 C 318 358, 285 382, 318 427
 C 351 472, 528 679, 590 714
 C 652 749, 742 708, 753 675
 C 764 642, 629 508, 668 486
 C 707 464, 973 515, 1024 520
">
</path>
</g>
<g id="will-src"
stroke="rgb(255,0,0)"
stroke-width="4"
fill="none"
stroke-linecap="round"
stroke-linejoin="round"
filter="url(#lightUp)">
<path id="path_will" d="M 0 515
 C 52 488, 262 291, 365 323
 C 468 355, 704 681, 722 739
 C 740 797, 529 790, 491 728
 C 453 666, 435 325, 455 307
 C 475 289, 656 575, 633 599
 C 610 623, 304 498, 294 475
 C 284 452, 559 460, 565 438
 C 571 416, 329 290, 339 319
 C 349 348, 624 640, 633 644
 C 642 648, 417 327, 403 346
 C 389 365, 479 778, 532 778
 C 585 778, 804 397, 775 347
 C 746 297, 401 376, 328 431
 C 255 486, 277 739, 266 732
 C 255 725, 178 447, 248 381
 C 318 315, 690 251, 753 269
 C 816 287, 747 458, 689 504
 C 631 550, 406 552, 349 590
 C 292 628, 243 757, 289 773
 C 335 789, 652 741, 674 705
 C 696 669, 473 582, 440 520
 C 407 458, 420 238, 445 269
 C 470 300, 627 717, 615 735
 C 603 753, 402 437, 358 394
 C 314 351, 277 387, 310 433
 C 343 479, 528 685, 591 719
 C 654 753, 737 707, 748 674
 C 759 641, 632 508, 671 485
 C 710 462, 974 511, 1024 515
">
</path>
</g>
<g id="awa-src"
stroke="rgb(0,255,0)"
stroke-width="4"
fill="none"
stroke-linecap="round"
stroke-linejoin="round"
filter="url(#lightUp)">
<path id="path_awa" d="M 0 521
 C 52 494, 263 301, 367 331
 C 471 361, 710 677, 727 733
 C 744 789, 529 785, 489 723
 C 449 661, 429 317, 448 299
 C 467 281, 646 573, 625 598
 C 604 623, 305 495, 298 471
 C 291 447, 567 452, 574 429
 C 581 406, 338 279, 347 309
 C 356 339, 626 636, 634 641
 C 642 646, 419 323, 403 342
 C 387 361, 472 771, 525 772
 C 578 773, 805 395, 776 346
 C 747 297, 393 374, 319 429
 C 245 484, 272 739, 261 732
 C 250 725, 171 448, 241 382
 C 311 316, 685 252, 748 270
 C 811 288, 737 460, 680 506
 C 623 552, 406 550, 350 589
 C 294 628, 244 758, 291 776
 C 338 794, 660 749, 680 712
 C 700 675, 466 581, 433 518
 C 400 455, 422 240, 447 271
 C 472 302, 625 713, 611 732
 C 597 751, 393 447, 350 403
 C 307 359, 278 382, 313 427
 C 348 472, 532 686, 594 721
 C 656 756, 737 707, 748 674
 C 759 641, 633 511, 672 488
 C 711 465, 974 512, 1024 516
">
</path>
</g>
<filter id="lightUp"
filterUnits="userSpaceOnUse"
x="-100%" y="-100%" width="200%" height="200%"
color-interpolation-filters="sRGB">

<feGaussianBlur in="SourceGraphic"
stdDeviation="3" 
result="blur">
</feGaussianBlur>

<feMerge>
<feMergeNode in="blur"/>
<feMergeNode in="blur"/>
<feMergeNode in="SourceGraphic"/>
</feMerge>
</filter> 
</defs>

<rect width='1024' height='1024' fill='#000'/>

  <g>
    <use href="#thought-src" style="mix-blend-mode:lighten;"/>
    <use href="#will-src" style="mix-blend-mode:lighten;"/>
    <use href="#awa-src" style="mix-blend-mode:lighten;"/>
  </g>


</svg>