<svg width="1024" height="1024" viewBox="0 0 1024 1024"
     xmlns="http://www.w3.org/2000/svg"
     style="background:#000; isolation:isolate">

<defs>
<g id="thought-src"
stroke="rgb(0,0,255)"
stroke-width="2"
fill="none"
stroke-linecap="round"
stroke-linejoin="round"
filter="url(#lightUp)">
<path id="path_thought" d="M 0 522
 C 271 572, 177 788, 541 622
 C 905 456, 876 348, 727 190
 C 578 32, 419 252, 244 306
 C 69 360, 279 333, 377 297
 C 475 261, 305 -32, 440 234
 C 575 500, 567 743, 646 828
 C 725 913, 769 553, 598 404
 C 427 255, 520 479, 304 531
 C 88 583, 226 653, 166 508
 C 106 363, 128 159, 184 241
 C 240 323, 40 620, 277 671
 C 514 722, 659 517, 657 342
 C 655 167, 481 333, 273 322
 C 65 311, 158 316, 242 320
 C 326 324, 151 351, 441 330
 C 731 309, 762 287, 821 279
 C 880 271, 562 247, 559 315
 C 556 383, 943 349, 816 415
 C 689 481, 374 369, 306 446
 C 238 523, 719 439, 681 568
 C 643 697, 441 559, 231 703
 C 21 847, 154 908, 261 856
 C 368 804, 462 927, 444 599
 C 426 271, 50 348, 225 200
 C 400 52, 754 251, 793 303
 C 832 355, 622 66, 302 304
 C -18 542, 5 836, 153 779
 C 301 722, 367 389, 598 190
 C 829 -9, 515 51, 614 382
 C 713 713, 755 620, 795 851
 C 835 1082, 820 1174, 693 843
 C 566 512, 586 178, 542 189
 C 498 200, 745 736, 606 865
 C 467 994, 240 471, 265 447
 C 290 423, 529 737, 655 817
 C 781 897, 436 690, 516 606
 C 596 522, 774 621, 815 650
 C 856 679, 637 892, 598 664
 C 559 436, 771 404, 737 194
 C 703 -16, 745 -100, 531 244
 C 317 588, 190 656, 310 881
 C 430 1106, 826 975, 771 694
 C 716 413, 285 445, 200 320
 C 115 195, 189 347, 601 445
 C 1013 543, 812 480, 1024 515
">
</path>
</g>
<g id="will-src"
stroke="rgb(255,0,0)"
stroke-width="2"
fill="none"
stroke-linecap="round"
stroke-linejoin="round"
filter="url(#lightUp)">
<path id="path_will" d="M 0 514
 C 269 570, 171 787, 537 625
 C 903 463, 876 353, 731 191
 C 586 29, 423 247, 247 302
 C 71 357, 283 338, 380 300
 C 477 262, 303 -39, 440 226
 C 577 491, 571 740, 653 829
 C 735 918, 778 553, 603 403
 C 428 253, 522 473, 304 529
 C 86 585, 230 660, 168 515
 C 106 370, 125 157, 180 239
 C 235 321, 36 628, 277 679
 C 518 730, 664 522, 661 340
 C 658 158, 478 324, 272 316
 C 66 308, 164 318, 250 325
 C 336 332, 159 358, 444 330
 C 729 302, 760 275, 820 270
 C 880 265, 565 245, 563 321
 C 561 397, 949 360, 817 422
 C 685 484, 368 371, 299 445
 C 230 519, 713 442, 680 570
 C 647 698, 442 555, 233 701
 C 24 847, 155 912, 263 861
 C 371 810, 465 934, 448 600
 C 431 266, 56 344, 229 193
 C 402 42, 757 241, 793 298
 C 829 355, 623 65, 300 307
 C -23 549, -4 839, 148 781
 C 300 723, 370 391, 604 191
 C 838 -9, 517 50, 615 381
 C 713 712, 758 623, 799 852
 C 840 1081, 826 1170, 697 838
 C 568 506, 589 172, 541 189
 C 493 206, 740 741, 602 871
 C 464 1001, 241 479, 266 449
 C 291 419, 525 731, 652 811
 C 779 891, 438 689, 519 608
 C 600 527, 769 623, 813 649
 C 857 675, 648 893, 607 660
 C 566 427, 774 393, 731 184
 C 688 -25, 738 -109, 522 242
 C 306 593, 176 658, 300 886
 C 424 1114, 822 980, 769 697
 C 716 414, 278 444, 194 320
 C 110 196, 187 349, 602 450
 C 1017 551, 813 485, 1024 521
">
</path>
</g>
<g id="awa-src"
stroke="rgb(0,255,0)"
stroke-width="2"
fill="none"
stroke-linecap="round"
stroke-linejoin="round"
filter="url(#lightUp)">
<path id="path_awa" d="M 0 515
 C 273 572, 178 790, 545 629
 C 912 468, 883 360, 733 194
 C 583 28, 425 243, 245 298
 C 65 353, 273 336, 374 303
 C 475 270, 308 -29, 447 232
 C 586 493, 578 737, 652 824
 C 726 911, 770 552, 594 406
 C 418 260, 513 483, 300 533
 C 87 583, 227 651, 169 506
 C 111 361, 133 158, 185 244
 C 237 330, 36 628, 272 677
 C 508 726, 659 519, 656 342
 C 653 165, 471 335, 267 324
 C 63 313, 160 315, 248 320
 C 336 325, 151 358, 442 333
 C 733 308, 767 280, 829 271
 C 891 262, 567 239, 565 315
 C 563 391, 960 356, 825 422
 C 690 488, 369 375, 296 446
 C 223 517, 707 436, 679 564
 C 651 692, 451 554, 240 702
 C 29 850, 154 911, 258 859
 C 362 807, 463 929, 447 599
 C 431 269, 56 348, 226 199
 C 396 50, 752 249, 787 302
 C 822 355, 615 64, 296 304
 C -23 544, -2 840, 149 781
 C 300 722, 362 386, 597 187
 C 832 -12, 519 53, 619 383
 C 719 713, 758 616, 796 846
 C 834 1076, 818 1169, 694 842
 C 570 515, 594 177, 549 192
 C 504 207, 746 742, 604 871
 C 462 1000, 244 478, 266 450
 C 288 422, 522 734, 648 816
 C 774 898, 433 692, 517 613
 C 601 534, 771 633, 815 659
 C 859 685, 645 901, 605 664
 C 565 427, 773 397, 736 186
 C 699 -25, 745 -109, 531 242
 C 317 593, 189 662, 308 887
 C 427 1112, 822 973, 769 691
 C 716 409, 284 443, 202 323
 C 120 203, 194 355, 605 451
 C 1016 547, 814 482, 1024 514
">
</path>
</g>
<filter id="lightUp"
filterUnits="userSpaceOnUse"
x="-100%" y="-100%" width="200%" height="200%"
color-interpolation-filters="sRGB">

<feGaussianBlur in="SourceGraphic"
stdDeviation="3" 
result="blur">
</feGaussianBlur>

<feMerge>
<feMergeNode in="blur"/>
<feMergeNode in="blur"/>
<feMergeNode in="SourceGraphic"/>
</feMerge>
</filter> 
</defs>

<rect width='1024' height='1024' fill='#000'/>

  <g>
    <use href="#thought-src" style="mix-blend-mode:lighten;"/>
    <use href="#will-src" style="mix-blend-mode:lighten;"/>
    <use href="#awa-src" style="mix-blend-mode:lighten;"/>
  </g>


</svg>