<svg width="1024" height="1024" viewBox="0 0 1024 1024"
     xmlns="http://www.w3.org/2000/svg"
     style="background:#000; isolation:isolate">

<defs>
<g id="thought-src"
stroke="rgb(0,0,255)"
stroke-width="6"
fill="none"
stroke-linecap="round"
stroke-linejoin="round"
filter="url(#lightUp)">
<path id="path_thought" d="M 0 516
 C 315 481, 293 470, 629 447
 C 965 424, 731 392, 671 471
 C 611 550, 531 577, 510 604
 C 489 631, 653 498, 629 524
 C 605 550, 434 716, 462 656
 C 490 596, 700 401, 685 405
 C 670 409, 485 626, 433 664
 C 381 702, 463 491, 582 481
 C 701 471, 762 580, 670 644
 C 578 708, 456 630, 398 609
 C 340 588, 493 714, 554 603
 C 615 492, 617 377, 519 387
 C 421 397, 342 558, 359 623
 C 376 688, 428 546, 552 517
 C 676 488, 574 559, 607 566
 C 640 573, 585 498, 618 530
 C 651 562, 470 635, 673 630
 C 876 625, 848 575, 1024 520
">
</path>
</g>
<g id="will-src"
stroke="rgb(255,0,0)"
stroke-width="6"
fill="none"
stroke-linecap="round"
stroke-linejoin="round"
filter="url(#lightUp)">
<path id="path_will" d="M 0 519
 C 314 485, 290 477, 628 451
 C 966 425, 732 391, 675 468
 C 618 545, 536 576, 515 605
 C 494 634, 663 499, 633 525
 C 603 551, 430 713, 456 656
 C 482 599, 702 404, 685 411
 C 668 418, 476 634, 423 670
 C 370 706, 457 495, 579 483
 C 701 471, 756 581, 667 647
 C 578 713, 460 634, 401 614
 C 342 594, 488 725, 550 608
 C 612 491, 617 375, 524 381
 C 431 387, 353 553, 365 620
 C 377 687, 431 541, 548 514
 C 665 487, 564 558, 599 566
 C 634 574, 580 495, 618 529
 C 656 563, 472 638, 675 633
 C 878 628, 849 577, 1024 520
">
</path>
</g>
<g id="awa-src"
stroke="rgb(0,255,0)"
stroke-width="6"
fill="none"
stroke-linecap="round"
stroke-linejoin="round"
filter="url(#lightUp)">
<path id="path_awa" d="M 0 514
 C 315 479, 292 466, 629 444
 C 966 422, 731 394, 673 470
 C 615 546, 535 566, 514 596
 C 493 626, 658 499, 631 529
 C 604 559, 436 716, 461 656
 C 486 596, 698 405, 680 410
 C 662 415, 473 630, 426 665
 C 379 700, 467 492, 587 479
 C 707 466, 762 571, 666 640
 C 570 709, 451 634, 396 616
 C 341 598, 490 720, 556 605
 C 622 490, 622 382, 527 387
 C 432 392, 351 553, 366 615
 C 381 677, 438 532, 557 511
 C 676 490, 576 563, 603 573
 C 630 583, 574 497, 611 531
 C 648 565, 470 648, 677 640
 C 884 632, 850 578, 1024 515
">
</path>
</g>
<filter id="lightUp"
filterUnits="userSpaceOnUse"
x="-100%" y="-100%" width="200%" height="200%"
color-interpolation-filters="sRGB">

<feGaussianBlur in="SourceGraphic"
stdDeviation="3" 
result="blur">
</feGaussianBlur>

<feMerge>
<feMergeNode in="blur"/>
<feMergeNode in="blur"/>
<feMergeNode in="SourceGraphic"/>
</feMerge>
</filter> 
</defs>

<rect width='1024' height='1024' fill='#000'/>

  <g>
    <use href="#thought-src" style="mix-blend-mode:lighten;"/>
    <use href="#will-src" style="mix-blend-mode:lighten;"/>
    <use href="#awa-src" style="mix-blend-mode:lighten;"/>
  </g>


</svg>