<svg width="1024" height="1024" viewBox="0 0 1024 1024"
     xmlns="http://www.w3.org/2000/svg"
     style="background:#000; isolation:isolate">

<defs>
<g id="thought-src"
stroke="rgb(0,0,255)"
stroke-width="2"
fill="none"
stroke-linecap="round"
stroke-linejoin="round"
filter="url(#lightUp)">
<path id="path_thought" d="M 0 521
 C 88 482, 501 244, 615 249
 C 729 254, 826 527, 798 553
 C 770 579, 470 431, 416 430
 C 362 429, 393 531, 422 547
 C 451 563, 559 589, 619 539
 C 679 489, 835 172, 842 198
 C 849 224, 732 657, 667 719
 C 602 781, 429 665, 387 633
 C 345 601, 404 557, 371 493
 C 338 429, 85 212, 153 188
 C 221 164, 783 242, 847 323
 C 911 404, 624 733, 602 753
 C 580 773, 665 512, 694 463
 C 723 414, 883 434, 807 413
 C 731 392, 236 353, 162 317
 C 88 281, 196 160, 287 162
 C 378 164, 779 312, 797 332
 C 815 352, 467 300, 411 304
 C 355 308, 380 311, 406 359
 C 432 407, 616 660, 593 643
 C 570 626, 295 215, 247 239
 C 199 263, 181 757, 258 809
 C 335 861, 769 662, 784 604
 C 799 546, 455 375, 366 404
 C 277 433, 120 737, 160 805
 C 200 873, 633 869, 648 878
 C 663 887, 256 915, 262 865
 C 268 815, 684 588, 690 525
 C 696 462, 374 446, 302 421
 C 230 396, 194 350, 189 351
 C 184 352, 236 429, 268 427
 C 300 425, 343 357, 416 337
 C 489 317, 750 281, 781 288
 C 812 295, 669 353, 630 383
 C 591 413, 485 462, 509 499
 C 533 536, 821 622, 800 644
 C 779 666, 387 645, 360 654
 C 333 663, 579 687, 613 704
 C 647 721, 595 844, 598 773
 C 601 702, 669 245, 633 207
 C 597 169, 409 505, 345 505
 C 281 505, 139 250, 182 204
 C 225 158, 629 179, 649 184
 C 669 189, 346 151, 319 242
 C 292 333, 469 801, 463 821
 C 457 841, 312 418, 276 383
 C 240 348, 148 555, 212 573
 C 276 591, 673 536, 725 512
 C 777 488, 576 403, 574 406
 C 572 409, 646 517, 710 533
 C 774 549, 979 521, 1024 519
">
</path>
</g>
<g id="will-src"
stroke="rgb(255,0,0)"
stroke-width="2"
fill="none"
stroke-linecap="round"
stroke-linejoin="round"
filter="url(#lightUp)">
<path id="path_will" d="M 0 517
 C 87 478, 496 241, 610 245
 C 724 249, 825 521, 797 547
 C 769 573, 466 428, 412 428
 C 358 428, 389 533, 418 549
 C 447 565, 558 593, 618 542
 C 678 491, 834 166, 841 190
 C 848 214, 728 649, 664 712
 C 600 775, 432 662, 391 630
 C 350 598, 412 549, 379 486
 C 346 423, 93 211, 161 187
 C 229 163, 791 240, 853 320
 C 915 400, 620 727, 598 748
 C 576 769, 667 512, 697 465
 C 727 418, 885 438, 809 417
 C 733 396, 240 355, 166 319
 C 92 283, 201 164, 291 167
 C 381 170, 782 320, 799 340
 C 816 360, 467 302, 412 304
 C 357 306, 389 304, 414 353
 C 439 402, 613 666, 589 650
 C 565 634, 296 220, 247 243
 C 198 266, 171 758, 249 810
 C 327 862, 774 664, 791 605
 C 808 546, 460 370, 369 398
 C 278 426, 116 730, 156 798
 C 196 866, 636 863, 651 872
 C 666 881, 253 913, 258 864
 C 263 815, 679 590, 685 527
 C 691 464, 372 450, 302 424
 C 232 398, 196 346, 192 346
 C 188 346, 242 425, 274 424
 C 306 423, 347 357, 419 338
 C 491 319, 747 282, 777 289
 C 807 296, 667 356, 629 385
 C 591 414, 488 458, 513 495
 C 538 532, 823 624, 802 646
 C 781 668, 391 638, 364 647
 C 337 656, 582 692, 616 709
 C 650 726, 600 838, 603 766
 C 606 694, 671 241, 634 203
 C 597 165, 412 500, 347 500
 C 282 500, 135 246, 178 200
 C 221 154, 625 176, 646 181
 C 667 186, 348 146, 322 237
 C 296 328, 470 798, 463 818
 C 456 838, 308 412, 273 377
 C 238 342, 152 552, 216 570
 C 280 588, 671 529, 722 506
 C 773 483, 575 405, 572 410
 C 569 415, 638 526, 703 541
 C 768 556, 978 518, 1024 514
">
</path>
</g>
<g id="awa-src"
stroke="rgb(0,255,0)"
stroke-width="2"
fill="none"
stroke-linecap="round"
stroke-linejoin="round"
filter="url(#lightUp)">
<path id="path_awa" d="M 0 512
 C 87 474, 495 245, 609 249
 C 723 253, 826 517, 798 543
 C 770 569, 464 430, 410 431
 C 356 432, 393 537, 423 553
 C 453 569, 564 595, 623 545
 C 682 495, 833 176, 839 200
 C 845 224, 727 654, 662 715
 C 597 776, 425 663, 384 630
 C 343 597, 411 550, 378 487
 C 345 424, 86 209, 154 186
 C 222 163, 787 243, 851 323
 C 915 403, 626 727, 604 747
 C 582 767, 667 513, 696 465
 C 725 417, 886 433, 810 412
 C 734 391, 239 355, 164 319
 C 89 283, 194 158, 284 160
 C 374 162, 778 314, 795 335
 C 812 356, 461 303, 406 306
 C 351 309, 384 305, 410 354
 C 436 403, 612 667, 588 651
 C 564 635, 288 223, 241 245
 C 194 267, 180 757, 258 808
 C 336 859, 774 660, 789 601
 C 804 542, 453 370, 363 398
 C 273 426, 117 731, 158 799
 C 199 867, 635 866, 649 875
 C 663 884, 253 911, 259 861
 C 265 811, 682 590, 688 527
 C 694 464, 369 448, 298 422
 C 227 396, 191 342, 188 343
 C 185 344, 241 430, 274 429
 C 307 428, 349 353, 420 333
 C 491 313, 743 282, 773 288
 C 803 294, 671 348, 633 378
 C 595 408, 484 460, 507 498
 C 530 536, 816 620, 796 642
 C 776 664, 391 643, 365 652
 C 339 661, 580 686, 614 703
 C 648 720, 602 841, 605 769
 C 608 697, 670 236, 633 197
 C 596 158, 408 497, 343 498
 C 278 499, 132 247, 176 201
 C 220 155, 630 170, 650 175
 C 670 180, 345 141, 318 233
 C 291 325, 468 800, 461 820
 C 454 840, 303 411, 268 376
 C 233 341, 148 555, 214 574
 C 280 593, 675 529, 727 506
 C 779 483, 580 408, 576 413
 C 572 418, 637 528, 701 543
 C 765 558, 978 522, 1024 518
">
</path>
</g>
<filter id="lightUp"
filterUnits="userSpaceOnUse"
x="-100%" y="-100%" width="200%" height="200%"
color-interpolation-filters="sRGB">

<feGaussianBlur in="SourceGraphic"
stdDeviation="3" 
result="blur">
</feGaussianBlur>

<feMerge>
<feMergeNode in="blur"/>
<feMergeNode in="blur"/>
<feMergeNode in="SourceGraphic"/>
</feMerge>
</filter> 
</defs>

<rect width='1024' height='1024' fill='#000'/>

  <g>
    <use href="#thought-src" style="mix-blend-mode:lighten;"/>
    <use href="#will-src" style="mix-blend-mode:lighten;"/>
    <use href="#awa-src" style="mix-blend-mode:lighten;"/>
  </g>


</svg>