<svg width="1024" height="1024" viewBox="0 0 1024 1024"
     xmlns="http://www.w3.org/2000/svg"
     style="background:#000; isolation:isolate">

<defs>
<g id="thought-src"
stroke="rgb(0,0,255)"
stroke-width="2"
fill="none"
stroke-linecap="round"
stroke-linejoin="round"
filter="url(#lightUp)">
<path id="path_thought" d="M 0 522
 C 151 495, 475 422, 604 414
 C 733 406, 594 520, 516 492
 C 438 464, 353 312, 291 301
 C 229 290, 272 461, 268 449
 C 264 437, 228 186, 274 255
 C 320 324, 380 709, 450 725
 C 520 741, 580 433, 554 317
 C 528 201, 356 192, 346 262
 C 336 332, 514 490, 515 596
 C 516 702, 299 719, 351 684
 C 403 649, 628 522, 722 455
 C 816 388, 768 405, 725 417
 C 682 429, 664 460, 550 501
 C 436 542, 328 567, 270 579
 C 212 591, 242 610, 317 549
 C 392 488, 483 363, 569 336
 C 655 309, 723 439, 659 442
 C 595 445, 341 356, 315 348
 C 289 340, 470 416, 556 409
 C 642 402, 624 265, 657 321
 C 690 377, 690 557, 688 633
 C 686 709, 748 672, 649 626
 C 550 580, 267 424, 294 450
 C 321 476, 660 660, 758 728
 C 856 796, 809 832, 686 720
 C 563 608, 338 313, 265 282
 C 192 251, 269 523, 396 598
 C 523 673, 739 609, 772 582
 C 805 555, 626 536, 526 491
 C 426 446, 354 432, 374 404
 C 394 376, 602 410, 606 379
 C 610 348, 457 230, 388 279
 C 319 328, 235 455, 332 576
 C 429 697, 684 762, 777 761
 C 870 760, 766 632, 705 572
 C 644 512, 645 486, 534 520
 C 423 554, 203 678, 263 706
 C 323 734, 712 675, 772 630
 C 832 585, 515 593, 503 525
 C 491 457, 699 304, 726 359
 C 753 414, 629 742, 611 745
 C 593 748, 635 385, 654 369
 C 673 353, 689 581, 687 682
 C 685 783, 742 862, 648 772
 C 554 682, 290 430, 311 322
 C 332 214, 657 265, 730 340
 C 803 415, 528 577, 602 620
 C 676 663, 918 539, 1024 512
">
</path>
</g>
<g id="will-src"
stroke="rgb(255,0,0)"
stroke-width="2"
fill="none"
stroke-linecap="round"
stroke-linejoin="round"
filter="url(#lightUp)">
<path id="path_will" d="M 0 516
 C 153 493, 482 428, 611 424
 C 740 420, 594 532, 515 501
 C 436 470, 359 315, 295 302
 C 231 289, 266 462, 259 450
 C 252 438, 223 188, 269 256
 C 315 324, 373 707, 443 723
 C 513 739, 573 436, 549 321
 C 525 206, 355 197, 346 265
 C 337 333, 511 485, 512 591
 C 513 697, 295 723, 349 689
 C 403 655, 633 523, 728 454
 C 823 385, 774 400, 729 412
 C 684 424, 661 458, 548 501
 C 435 544, 334 571, 276 582
 C 218 593, 245 605, 318 545
 C 391 485, 483 365, 569 341
 C 655 317, 724 449, 661 451
 C 598 453, 342 357, 317 347
 C 292 337, 480 418, 563 411
 C 646 404, 617 265, 650 321
 C 683 377, 693 557, 693 634
 C 693 711, 749 674, 650 628
 C 551 582, 268 423, 298 449
 C 328 475, 671 663, 768 731
 C 865 799, 810 834, 685 721
 C 560 608, 342 313, 269 281
 C 196 249, 269 519, 395 593
 C 521 667, 737 605, 771 578
 C 805 551, 630 530, 532 486
 C 434 442, 361 427, 378 401
 C 395 375, 597 416, 600 384
 C 603 352, 456 225, 389 274
 C 322 323, 235 458, 333 578
 C 431 698, 686 753, 779 753
 C 872 753, 768 636, 706 577
 C 644 518, 643 485, 532 519
 C 421 553, 202 686, 262 713
 C 322 740, 712 673, 772 627
 C 832 581, 516 596, 503 528
 C 490 460, 693 299, 720 354
 C 747 409, 627 744, 609 747
 C 591 750, 629 380, 649 365
 C 669 350, 689 584, 689 686
 C 689 788, 747 860, 650 771
 C 553 682, 280 439, 302 331
 C 324 223, 661 267, 736 338
 C 811 409, 531 571, 603 616
 C 675 661, 919 543, 1024 518
">
</path>
</g>
<g id="awa-src"
stroke="rgb(0,255,0)"
stroke-width="2"
fill="none"
stroke-linecap="round"
stroke-linejoin="round"
filter="url(#lightUp)">
<path id="path_awa" d="M 0 521
 C 152 497, 479 430, 607 424
 C 735 418, 590 529, 511 496
 C 432 463, 352 307, 291 294
 C 230 281, 274 455, 269 446
 C 264 437, 227 187, 271 258
 C 315 329, 375 714, 446 730
 C 517 746, 579 437, 553 320
 C 527 203, 354 194, 344 264
 C 334 334, 511 494, 512 600
 C 513 706, 295 726, 349 689
 C 403 652, 633 522, 727 453
 C 821 384, 769 404, 725 415
 C 681 426, 666 453, 553 495
 C 440 537, 332 571, 274 583
 C 216 595, 248 605, 321 544
 C 394 483, 481 362, 565 338
 C 649 314, 718 445, 658 448
 C 598 451, 348 359, 324 349
 C 300 339, 480 415, 563 408
 C 646 401, 623 262, 654 320
 C 685 378, 688 563, 687 639
 C 686 715, 747 672, 650 625
 C 553 578, 273 424, 301 451
 C 329 478, 665 665, 761 731
 C 857 797, 809 827, 684 716
 C 559 605, 333 319, 262 289
 C 191 259, 273 524, 401 598
 C 529 672, 743 613, 775 585
 C 807 557, 629 530, 530 485
 C 431 440, 361 430, 378 404
 C 395 378, 594 412, 599 380
 C 604 348, 464 226, 397 275
 C 330 324, 238 457, 331 577
 C 424 697, 675 753, 770 753
 C 865 753, 772 636, 712 578
 C 652 520, 645 485, 532 520
 C 419 555, 202 688, 261 716
 C 320 744, 706 677, 766 630
 C 826 583, 511 596, 499 528
 C 487 460, 692 303, 720 359
 C 748 415, 628 748, 610 750
 C 592 752, 629 383, 648 365
 C 667 347, 685 578, 686 679
 C 687 780, 746 855, 650 767
 C 554 679, 281 435, 302 328
 C 323 221, 656 267, 733 339
 C 810 411, 537 572, 610 616
 C 683 660, 920 540, 1024 514
">
</path>
</g>
<filter id="lightUp"
filterUnits="userSpaceOnUse"
x="-100%" y="-100%" width="200%" height="200%"
color-interpolation-filters="sRGB">

<feGaussianBlur in="SourceGraphic"
stdDeviation="3" 
result="blur">
</feGaussianBlur>

<feMerge>
<feMergeNode in="blur"/>
<feMergeNode in="blur"/>
<feMergeNode in="SourceGraphic"/>
</feMerge>
</filter> 
</defs>

<rect width='1024' height='1024' fill='#000'/>

  <g>
    <use href="#thought-src" style="mix-blend-mode:lighten;"/>
    <use href="#will-src" style="mix-blend-mode:lighten;"/>
    <use href="#awa-src" style="mix-blend-mode:lighten;"/>
  </g>


</svg>