<svg width="1024" height="1024" viewBox="0 0 1024 1024"
     xmlns="http://www.w3.org/2000/svg"
     style="background:#000; isolation:isolate">

<defs>
<g id="thought-src"
stroke="rgb(0,0,255)"
stroke-width="3"
fill="none"
stroke-linecap="round"
stroke-linejoin="round"
filter="url(#lightUp)">
<path id="path_thought" d="M 0 512
 C 58 531, 485 684, 519 680
 C 553 676, 302 503, 302 474
 C 302 445, 493 437, 520 423
 C 547 409, 567 317, 547 345
 C 527 373, 321 645, 337 671
 C 353 697, 685 596, 690 576
 C 695 556, 403 495, 381 488
 C 359 481, 486 513, 489 514
 C 492 515, 415 516, 412 501
 C 409 486, 468 356, 466 377
 C 464 398, 388 683, 390 689
 C 392 695, 468 459, 485 431
 C 502 403, 557 447, 541 440
 C 525 433, 349 356, 343 364
 C 337 372, 482 490, 487 509
 C 492 528, 389 533, 390 537
 C 391 541, 466 555, 498 542
 C 530 529, 659 406, 681 418
 C 703 430, 735 642, 694 651
 C 653 660, 341 536, 314 497
 C 287 458, 417 306, 448 301
 C 479 296, 574 410, 590 453
 C 606 496, 587 686, 591 686
 C 595 686, 648 461, 629 451
 C 610 441, 435 563, 424 595
 C 413 627, 498 727, 529 735
 C 560 743, 709 687, 700 667
 C 691 647, 451 571, 450 559
 C 449 547, 678 560, 691 561
 C 704 562, 562 571, 566 569
 C 570 567, 753 541, 730 542
 C 707 543, 388 587, 358 578
 C 328 569, 422 457, 463 463
 C 504 469, 729 607, 728 635
 C 727 663, 474 736, 458 716
 C 442 696, 589 501, 585 454
 C 581 407, 372 287, 421 294
 C 470 301, 957 494, 1024 519
">
</path>
</g>
<g id="will-src"
stroke="rgb(255,0,0)"
stroke-width="3"
fill="none"
stroke-linecap="round"
stroke-linejoin="round"
filter="url(#lightUp)">
<path id="path_will" d="M 0 522
 C 58 540, 487 691, 520 686
 C 553 681, 300 507, 301 478
 C 302 449, 499 438, 527 423
 C 555 408, 570 314, 549 342
 C 528 370, 324 650, 340 676
 C 356 702, 689 599, 694 578
 C 699 557, 407 493, 385 486
 C 363 479, 489 511, 492 513
 C 495 515, 417 515, 413 500
 C 409 485, 460 357, 458 378
 C 456 399, 391 687, 394 692
 C 397 697, 472 453, 488 424
 C 504 395, 558 441, 542 434
 C 526 427, 346 354, 340 363
 C 334 372, 481 494, 487 513
 C 493 532, 395 535, 396 537
 C 397 539, 467 548, 499 535
 C 531 522, 665 405, 687 417
 C 709 429, 737 637, 696 646
 C 655 655, 345 540, 318 502
 C 291 464, 424 308, 454 302
 C 484 296, 572 405, 587 449
 C 602 493, 584 695, 588 696
 C 592 697, 641 466, 622 455
 C 603 444, 429 566, 419 597
 C 409 628, 498 730, 529 738
 C 560 746, 705 687, 696 666
 C 687 645, 451 562, 450 551
 C 449 540, 679 562, 691 564
 C 703 566, 556 573, 561 570
 C 566 567, 761 535, 739 536
 C 717 537, 397 590, 366 581
 C 335 572, 422 451, 462 457
 C 502 463, 724 606, 723 635
 C 722 664, 470 738, 454 718
 C 438 698, 580 504, 576 458
 C 572 412, 365 294, 415 301
 C 465 308, 956 493, 1024 517
">
</path>
</g>
<g id="awa-src"
stroke="rgb(0,255,0)"
stroke-width="3"
fill="none"
stroke-linecap="round"
stroke-linejoin="round"
filter="url(#lightUp)">
<path id="path_awa" d="M 0 516
 C 58 534, 484 685, 518 681
 C 552 677, 302 512, 303 483
 C 304 454, 502 435, 529 419
 C 556 403, 568 313, 547 341
 C 526 369, 323 642, 339 668
 C 355 694, 690 598, 694 578
 C 698 558, 400 497, 378 490
 C 356 483, 495 512, 499 513
 C 503 514, 417 511, 412 496
 C 407 481, 460 353, 457 375
 C 454 397, 385 687, 388 692
 C 391 697, 466 450, 484 421
 C 502 392, 561 440, 546 433
 C 531 426, 353 347, 346 356
 C 339 365, 475 496, 481 517
 C 487 538, 397 538, 399 541
 C 401 544, 466 558, 498 544
 C 530 530, 661 407, 683 419
 C 705 431, 735 641, 694 651
 C 653 661, 345 543, 317 505
 C 289 467, 415 313, 446 306
 C 477 299, 577 404, 594 446
 C 611 488, 591 686, 595 686
 C 599 686, 648 455, 629 446
 C 610 437, 436 569, 425 601
 C 414 633, 497 728, 528 736
 C 559 744, 709 693, 701 673
 C 693 653, 455 569, 454 556
 C 453 543, 681 557, 694 559
 C 707 561, 563 573, 568 571
 C 573 569, 760 540, 737 541
 C 714 542, 387 586, 357 578
 C 327 570, 428 460, 469 466
 C 510 472, 725 606, 723 634
 C 721 662, 467 740, 451 721
 C 435 702, 584 506, 580 459
 C 576 412, 370 288, 419 294
 C 468 300, 957 488, 1024 512
">
</path>
</g>
<filter id="lightUp"
filterUnits="userSpaceOnUse"
x="-100%" y="-100%" width="200%" height="200%"
color-interpolation-filters="sRGB">

<feGaussianBlur in="SourceGraphic"
stdDeviation="3" 
result="blur">
</feGaussianBlur>

<feMerge>
<feMergeNode in="blur"/>
<feMergeNode in="blur"/>
<feMergeNode in="SourceGraphic"/>
</feMerge>
</filter> 
</defs>

<rect width='1024' height='1024' fill='#000'/>

  <g>
    <use href="#thought-src" style="mix-blend-mode:lighten;"/>
    <use href="#will-src" style="mix-blend-mode:lighten;"/>
    <use href="#awa-src" style="mix-blend-mode:lighten;"/>
  </g>


</svg>