<svg width="1024" height="1024" viewBox="0 0 1024 1024"
     xmlns="http://www.w3.org/2000/svg"
     style="background:#000; isolation:isolate">

<defs>
<g id="thought-src"
stroke="rgb(0,0,255)"
stroke-width="2"
fill="none"
stroke-linecap="round"
stroke-linejoin="round"
filter="url(#lightUp)">
<path id="path_thought" d="M 0 520
 C 67 519, 615 514, 669 513
 C 723 512, 559 518, 535 508
 C 511 498, 424 402, 430 410
 C 436 418, 582 571, 598 589
 C 614 607, 598 584, 587 586
 C 576 588, 480 608, 489 608
 C 498 608, 678 579, 678 582
 C 678 585, 500 635, 487 634
 C 474 633, 530 588, 544 572
 C 558 556, 622 474, 629 476
 C 636 478, 624 571, 612 592
 C 600 613, 504 698, 509 684
 C 514 670, 649 467, 662 455
 C 675 443, 641 553, 636 566
 C 631 579, 631 588, 611 584
 C 591 580, 460 545, 441 523
 C 422 501, 412 355, 421 360
 C 430 365, 516 539, 531 568
 C 546 597, 569 668, 568 654
 C 567 640, 542 424, 520 426
 C 498 428, 342 667, 351 670
 C 360 673, 611 471, 610 451
 C 609 431, 339 475, 343 473
 C 347 471, 642 421, 649 431
 C 656 441, 438 570, 415 577
 C 392 584, 417 491, 421 497
 C 425 503, 437 628, 459 635
 C 481 642, 654 571, 643 562
 C 632 553, 373 561, 348 542
 C 323 523, 376 388, 392 369
 C 408 350, 512 341, 508 350
 C 504 359, 354 445, 355 460
 C 356 475, 488 499, 513 496
 C 538 493, 602 426, 607 433
 C 612 440, 561 557, 563 565
 C 565 573, 629 509, 630 508
 C 631 507, 578 546, 570 552
 C 562 558, 541 565, 547 567
 C 553 569, 636 574, 625 573
 C 614 572, 461 548, 435 555
 C 409 562, 302 650, 361 646
 C 420 642, 958 533, 1024 520
">
</path>
</g>
<g id="will-src"
stroke="rgb(255,0,0)"
stroke-width="2"
fill="none"
stroke-linecap="round"
stroke-linejoin="round"
filter="url(#lightUp)">
<path id="path_will" d="M 0 515
 C 66 515, 610 512, 664 511
 C 718 510, 563 517, 539 507
 C 515 497, 420 400, 426 407
 C 432 414, 583 563, 598 581
 C 613 599, 589 583, 579 586
 C 569 589, 488 609, 498 608
 C 508 607, 683 577, 682 580
 C 681 583, 506 643, 492 642
 C 478 641, 530 585, 544 568
 C 558 551, 625 474, 632 476
 C 639 478, 628 570, 616 590
 C 604 610, 505 692, 510 679
 C 515 666, 648 471, 661 460
 C 674 449, 643 552, 638 565
 C 633 578, 628 591, 608 586
 C 588 581, 454 539, 436 517
 C 418 495, 417 360, 426 365
 C 435 370, 508 539, 523 569
 C 538 599, 573 676, 573 662
 C 573 648, 541 428, 519 430
 C 497 432, 340 676, 349 677
 C 358 678, 607 463, 607 443
 C 607 423, 341 478, 345 477
 C 349 476, 640 427, 648 437
 C 656 447, 445 572, 422 578
 C 399 584, 417 495, 420 501
 C 423 507, 428 630, 450 636
 C 472 642, 649 569, 639 560
 C 629 551, 373 563, 348 544
 C 323 525, 374 392, 390 373
 C 406 354, 513 344, 509 353
 C 505 362, 346 445, 347 459
 C 348 473, 491 493, 518 490
 C 545 487, 608 425, 612 433
 C 616 441, 560 559, 562 566
 C 564 573, 632 509, 633 507
 C 634 505, 576 542, 567 547
 C 558 552, 535 556, 541 559
 C 547 562, 642 573, 631 573
 C 620 573, 462 553, 436 560
 C 410 567, 312 642, 371 638
 C 430 634, 959 532, 1024 520
">
</path>
</g>
<g id="awa-src"
stroke="rgb(0,255,0)"
stroke-width="2"
fill="none"
stroke-linecap="round"
stroke-linejoin="round"
filter="url(#lightUp)">
<path id="path_awa" d="M 0 516
 C 67 515, 611 507, 665 506
 C 719 505, 564 519, 541 510
 C 518 501, 429 405, 435 412
 C 441 419, 583 567, 598 584
 C 613 601, 594 582, 583 585
 C 572 588, 478 615, 488 615
 C 498 615, 686 581, 685 584
 C 684 587, 497 645, 483 643
 C 469 641, 528 583, 543 567
 C 558 551, 623 480, 630 482
 C 637 484, 626 568, 614 588
 C 602 608, 508 698, 513 685
 C 518 672, 654 468, 666 456
 C 678 444, 637 551, 631 564
 C 625 577, 631 591, 611 587
 C 591 583, 454 548, 436 525
 C 418 502, 418 357, 427 361
 C 436 365, 511 533, 526 563
 C 541 593, 573 675, 572 662
 C 571 649, 542 433, 520 434
 C 498 435, 343 670, 352 672
 C 361 674, 611 471, 610 451
 C 609 431, 340 477, 344 475
 C 348 473, 639 421, 647 431
 C 655 441, 445 565, 423 572
 C 401 579, 422 490, 425 497
 C 428 504, 430 636, 452 643
 C 474 650, 653 574, 643 565
 C 633 556, 375 570, 350 551
 C 325 532, 380 393, 396 373
 C 412 353, 516 342, 511 350
 C 506 358, 350 440, 351 455
 C 352 470, 493 498, 519 496
 C 545 494, 605 428, 609 435
 C 613 442, 554 556, 556 564
 C 558 572, 623 514, 625 513
 C 627 512, 584 548, 576 553
 C 568 558, 537 557, 543 559
 C 549 561, 644 576, 633 576
 C 622 576, 457 557, 431 563
 C 405 569, 310 644, 369 640
 C 428 636, 958 534, 1024 522
">
</path>
</g>
<filter id="lightUp"
filterUnits="userSpaceOnUse"
x="-100%" y="-100%" width="200%" height="200%"
color-interpolation-filters="sRGB">

<feGaussianBlur in="SourceGraphic"
stdDeviation="3" 
result="blur">
</feGaussianBlur>

<feMerge>
<feMergeNode in="blur"/>
<feMergeNode in="blur"/>
<feMergeNode in="SourceGraphic"/>
</feMerge>
</filter> 
</defs>

<rect width='1024' height='1024' fill='#000'/>

  <g>
    <use href="#thought-src" style="mix-blend-mode:lighten;"/>
    <use href="#will-src" style="mix-blend-mode:lighten;"/>
    <use href="#awa-src" style="mix-blend-mode:lighten;"/>
  </g>


</svg>