<svg width="1024" height="1024" viewBox="0 0 1024 1024"
     xmlns="http://www.w3.org/2000/svg"
     style="background:#000; isolation:isolate">

<defs>
<g id="thought-src"
stroke="rgb(0,0,255)"
stroke-width="3"
fill="none"
stroke-linecap="round"
stroke-linejoin="round"
filter="url(#lightUp)">
<path id="path_thought" d="M 0 516
 C 66 495, 572 342, 591 331
 C 610 320, 162 401, 171 413
 C 180 425, 664 434, 670 441
 C 676 448, 242 458, 222 479
 C 202 500, 492 634, 491 634
 C 490 634, 173 497, 211 481
 C 249 465, 789 451, 831 491
 C 873 531, 584 879, 589 843
 C 594 807, 906 240, 876 163
 C 846 86, 347 92, 321 147
 C 295 202, 629 603, 646 660
 C 663 717, 514 708, 478 658
 C 442 608, 337 190, 322 214
 C 307 238, 279 854, 343 875
 C 407 896, 850 477, 898 400
 C 946 323, 853 162, 777 185
 C 701 208, 253 572, 211 603
 C 169 634, 390 450, 402 463
 C 414 476, 286 694, 320 720
 C 354 746, 715 719, 704 701
 C 693 683, 245 536, 221 554
 C 197 572, 486 899, 490 867
 C 494 835, 266 270, 254 268
 C 242 266, 309 814, 378 851
 C 447 888, 857 598, 878 603
 C 899 608, 610 901, 564 893
 C 518 885, 483 544, 468 535
 C 453 526, 408 807, 432 808
 C 456 809, 703 597, 681 540
 C 659 483, 196 299, 234 297
 C 272 295, 936 493, 1024 518
">
</path>
</g>
<g id="will-src"
stroke="rgb(255,0,0)"
stroke-width="3"
fill="none"
stroke-linecap="round"
stroke-linejoin="round"
filter="url(#lightUp)">
<path id="path_will" d="M 0 512
 C 66 491, 574 338, 593 326
 C 612 314, 162 393, 171 407
 C 180 421, 667 441, 673 448
 C 679 455, 242 453, 222 473
 C 202 493, 497 627, 495 628
 C 493 629, 167 499, 204 483
 C 241 467, 786 447, 829 486
 C 872 525, 585 873, 590 837
 C 595 801, 904 235, 874 159
 C 844 83, 348 95, 323 151
 C 298 207, 629 606, 646 662
 C 663 718, 512 705, 476 656
 C 440 607, 337 195, 322 220
 C 307 245, 277 859, 342 880
 C 407 901, 856 487, 905 410
 C 954 333, 858 165, 780 187
 C 702 209, 248 574, 206 605
 C 164 636, 385 453, 398 466
 C 411 479, 288 697, 322 723
 C 356 749, 716 717, 705 698
 C 694 679, 250 536, 226 554
 C 202 572, 485 895, 488 863
 C 491 831, 265 265, 253 264
 C 241 263, 308 817, 378 855
 C 448 893, 865 603, 885 607
 C 905 611, 608 894, 561 887
 C 514 880, 478 550, 465 541
 C 452 532, 417 807, 441 808
 C 465 809, 707 607, 684 550
 C 661 493, 200 300, 238 296
 C 276 292, 937 493, 1024 518
">
</path>
</g>
<g id="awa-src"
stroke="rgb(0,255,0)"
stroke-width="3"
fill="none"
stroke-linecap="round"
stroke-linejoin="round"
filter="url(#lightUp)">
<path id="path_awa" d="M 0 522
 C 66 501, 572 347, 591 334
 C 610 321, 160 394, 169 406
 C 178 418, 669 432, 674 439
 C 679 446, 238 451, 218 472
 C 198 493, 498 630, 497 632
 C 496 634, 170 502, 207 486
 C 244 470, 788 450, 831 490
 C 874 530, 593 879, 597 843
 C 601 807, 897 240, 866 163
 C 835 86, 345 91, 321 146
 C 297 201, 629 602, 646 659
 C 663 716, 515 706, 478 657
 C 441 608, 331 192, 315 217
 C 299 242, 271 862, 336 882
 C 401 902, 853 479, 902 401
 C 951 323, 852 160, 775 183
 C 698 206, 253 573, 211 604
 C 169 635, 385 452, 398 465
 C 411 478, 294 692, 327 718
 C 360 744, 709 717, 697 699
 C 685 681, 244 541, 222 560
 C 200 579, 493 902, 496 870
 C 499 838, 263 272, 250 270
 C 237 268, 307 818, 377 855
 C 447 892, 857 604, 878 607
 C 899 610, 609 894, 564 886
 C 519 878, 483 544, 469 535
 C 455 526, 411 805, 435 806
 C 459 807, 707 601, 685 544
 C 663 487, 202 293, 240 289
 C 278 285, 937 487, 1024 512
">
</path>
</g>
<filter id="lightUp"
filterUnits="userSpaceOnUse"
x="-100%" y="-100%" width="200%" height="200%"
color-interpolation-filters="sRGB">

<feGaussianBlur in="SourceGraphic"
stdDeviation="3" 
result="blur">
</feGaussianBlur>

<feMerge>
<feMergeNode in="blur"/>
<feMergeNode in="blur"/>
<feMergeNode in="SourceGraphic"/>
</feMerge>
</filter> 
</defs>

<rect width='1024' height='1024' fill='#000'/>

  <g>
    <use href="#thought-src" style="mix-blend-mode:lighten;"/>
    <use href="#will-src" style="mix-blend-mode:lighten;"/>
    <use href="#awa-src" style="mix-blend-mode:lighten;"/>
  </g>


</svg>