<svg width="1024" height="1024" viewBox="0 0 1024 1024"
     xmlns="http://www.w3.org/2000/svg"
     style="background:#000; isolation:isolate">

<defs>
<g id="thought-src"
stroke="rgb(0,0,255)"
stroke-width="2"
fill="none"
stroke-linecap="round"
stroke-linejoin="round"
filter="url(#lightUp)">
<path id="path_thought" d="M 0 519
 C 34 535, 247 660, 305 661
 C 363 662, 509 535, 525 528
 C 541 521, 455 607, 451 598
 C 447 589, 494 440, 492 451
 C 490 462, 426 718, 431 698
 C 436 678, 544 330, 541 275
 C 538 220, 416 149, 404 203
 C 392 257, 400 761, 436 760
 C 472 759, 738 182, 727 193
 C 716 204, 350 863, 333 859
 C 316 855, 554 163, 574 160
 C 594 157, 511 767, 517 829
 C 523 891, 620 738, 627 721
 C 634 704, 576 690, 584 679
 C 592 668, 692 648, 700 619
 C 708 590, 652 443, 656 415
 C 660 387, 710 354, 733 370
 C 756 386, 914 526, 862 557
 C 810 588, 283 620, 269 649
 C 255 678, 751 811, 740 822
 C 729 833, 221 783, 173 747
 C 125 711, 250 537, 308 496
 C 366 455, 659 395, 696 375
 C 733 355, 663 312, 637 314
 C 611 316, 498 394, 466 390
 C 434 386, 332 256, 351 282
 C 370 308, 589 615, 639 624
 C 689 633, 825 405, 800 363
 C 775 321, 467 269, 415 248
 C 363 227, 315 124, 330 177
 C 345 230, 511 711, 546 728
 C 581 745, 669 339, 649 334
 C 629 329, 348 664, 369 679
 C 390 694, 810 464, 835 472
 C 860 480, 623 776, 595 747
 C 567 718, 585 225, 583 213
 C 581 201, 543 575, 574 640
 C 605 705, 882 794, 862 799
 C 842 804, 422 740, 391 681
 C 360 622, 555 273, 579 267
 C 603 261, 630 598, 607 627
 C 584 656, 380 513, 374 530
 C 368 547, 531 778, 550 778
 C 569 778, 543 589, 541 529
 C 539 469, 520 230, 529 240
 C 538 250, 594 559, 621 622
 C 648 685, 731 821, 776 810
 C 821 799, 996 554, 1024 522
">
</path>
</g>
<g id="will-src"
stroke="rgb(255,0,0)"
stroke-width="2"
fill="none"
stroke-linecap="round"
stroke-linejoin="round"
filter="url(#lightUp)">
<path id="path_will" d="M 0 517
 C 33 533, 241 663, 299 664
 C 357 665, 508 532, 525 524
 C 542 516, 451 604, 448 596
 C 445 588, 497 437, 495 448
 C 493 459, 422 710, 426 691
 C 430 672, 536 334, 534 280
 C 532 226, 423 155, 411 209
 C 399 263, 394 771, 429 770
 C 464 769, 735 192, 725 201
 C 715 210, 353 858, 335 854
 C 317 850, 546 170, 567 168
 C 588 166, 512 770, 520 832
 C 528 894, 629 741, 636 723
 C 643 705, 573 684, 581 672
 C 589 660, 700 647, 708 618
 C 716 589, 653 441, 655 414
 C 657 387, 703 358, 726 374
 C 749 390, 915 528, 864 558
 C 813 588, 280 616, 267 645
 C 254 674, 756 812, 745 823
 C 734 834, 214 781, 166 745
 C 118 709, 255 539, 315 497
 C 375 455, 666 391, 703 371
 C 740 351, 670 317, 644 319
 C 618 321, 499 392, 466 388
 C 433 384, 331 253, 350 280
 C 369 307, 586 622, 637 632
 C 688 642, 831 412, 807 369
 C 783 326, 472 268, 419 247
 C 366 226, 320 130, 334 183
 C 348 236, 511 708, 547 724
 C 583 740, 674 334, 654 330
 C 634 326, 349 673, 369 688
 C 389 703, 813 459, 838 466
 C 863 473, 627 782, 598 753
 C 569 724, 584 220, 580 207
 C 576 194, 533 569, 564 634
 C 595 699, 881 791, 862 796
 C 843 801, 429 734, 397 675
 C 365 616, 549 267, 572 261
 C 595 255, 627 590, 605 620
 C 583 650, 383 515, 376 532
 C 369 549, 523 772, 541 772
 C 559 772, 540 593, 538 534
 C 536 475, 514 228, 523 238
 C 532 248, 595 559, 623 622
 C 651 685, 728 818, 773 806
 C 818 794, 996 547, 1024 515
">
</path>
</g>
<g id="awa-src"
stroke="rgb(0,255,0)"
stroke-width="2"
fill="none"
stroke-linecap="round"
stroke-linejoin="round"
filter="url(#lightUp)">
<path id="path_awa" d="M 0 514
 C 34 531, 246 662, 305 663
 C 364 664, 512 531, 528 524
 C 544 517, 453 606, 450 597
 C 447 588, 500 435, 498 445
 C 496 455, 424 710, 428 691
 C 432 672, 536 331, 533 277
 C 530 223, 416 155, 404 209
 C 392 263, 391 768, 427 767
 C 463 766, 734 188, 724 198
 C 714 208, 352 857, 336 853
 C 320 849, 557 167, 577 165
 C 597 163, 510 772, 516 834
 C 522 896, 626 737, 633 719
 C 640 701, 573 687, 581 676
 C 589 665, 696 651, 705 623
 C 714 595, 657 449, 660 421
 C 663 393, 712 354, 734 370
 C 756 386, 914 536, 862 567
 C 810 598, 279 620, 266 649
 C 253 678, 755 817, 744 828
 C 733 839, 214 781, 165 744
 C 116 707, 246 534, 305 493
 C 364 452, 659 391, 697 372
 C 735 353, 671 317, 645 319
 C 619 321, 497 397, 464 393
 C 431 389, 331 254, 351 280
 C 371 306, 592 615, 642 625
 C 692 635, 829 412, 804 370
 C 779 328, 469 267, 417 246
 C 365 225, 321 131, 335 185
 C 349 239, 512 712, 547 729
 C 582 746, 674 343, 654 337
 C 634 331, 350 663, 370 678
 C 390 693, 812 466, 838 474
 C 864 482, 631 780, 603 751
 C 575 722, 585 222, 582 209
 C 579 196, 542 564, 573 630
 C 604 696, 883 798, 863 803
 C 843 808, 427 736, 395 676
 C 363 616, 556 271, 579 265
 C 602 259, 622 591, 600 620
 C 578 649, 386 511, 380 528
 C 374 545, 525 771, 543 772
 C 561 773, 541 593, 539 533
 C 537 473, 518 222, 528 232
 C 538 242, 598 562, 625 625
 C 652 688, 731 812, 775 800
 C 819 788, 996 549, 1024 518
">
</path>
</g>
<filter id="lightUp"
filterUnits="userSpaceOnUse"
x="-100%" y="-100%" width="200%" height="200%"
color-interpolation-filters="sRGB">

<feGaussianBlur in="SourceGraphic"
stdDeviation="3" 
result="blur">
</feGaussianBlur>

<feMerge>
<feMergeNode in="blur"/>
<feMergeNode in="blur"/>
<feMergeNode in="SourceGraphic"/>
</feMerge>
</filter> 
</defs>

<rect width='1024' height='1024' fill='#000'/>

  <g>
    <use href="#thought-src" style="mix-blend-mode:lighten;"/>
    <use href="#will-src" style="mix-blend-mode:lighten;"/>
    <use href="#awa-src" style="mix-blend-mode:lighten;"/>
  </g>


</svg>