<svg width="1024" height="1024" viewBox="0 0 1024 1024"
     xmlns="http://www.w3.org/2000/svg"
     style="background:#000; isolation:isolate">

<defs>
<g id="thought-src"
stroke="rgb(0,0,255)"
stroke-width="3"
fill="none"
stroke-linecap="round"
stroke-linejoin="round"
filter="url(#lightUp)">
<path id="path_thought" d="M 0 514
 C 49 505, 428 428, 486 427
 C 544 426, 577 478, 577 503
 C 577 528, 472 705, 486 681
 C 500 657, 690 268, 719 266
 C 748 264, 820 614, 780 661
 C 740 708, 320 721, 319 740
 C 318 759, 775 869, 773 855
 C 771 841, 342 646, 301 600
 C 260 554, 375 407, 364 397
 C 353 387, 170 493, 196 501
 C 222 509, 570 477, 624 472
 C 678 467, 742 450, 737 447
 C 732 444, 581 428, 570 439
 C 559 450, 664 547, 624 557
 C 584 567, 183 516, 172 541
 C 161 566, 480 788, 512 808
 C 544 828, 507 770, 495 739
 C 483 708, 381 549, 390 494
 C 399 439, 544 186, 580 192
 C 616 198, 787 548, 748 556
 C 709 564, 204 263, 188 271
 C 172 279, 524 605, 590 640
 C 656 675, 881 629, 852 617
 C 823 605, 360 550, 302 521
 C 244 492, 264 297, 269 325
 C 274 353, 343 797, 349 804
 C 355 811, 283 414, 331 395
 C 379 376, 818 594, 825 619
 C 832 644, 424 655, 398 646
 C 372 637, 564 564, 561 534
 C 558 504, 380 361, 364 346
 C 348 331, 389 385, 406 384
 C 423 383, 472 324, 534 337
 C 596 350, 975 500, 1024 518
">
</path>
</g>
<g id="will-src"
stroke="rgb(255,0,0)"
stroke-width="3"
fill="none"
stroke-linecap="round"
stroke-linejoin="round"
filter="url(#lightUp)">
<path id="path_will" d="M 0 521
 C 49 512, 431 432, 488 431
 C 545 430, 574 483, 574 508
 C 574 533, 477 709, 492 684
 C 507 659, 691 264, 720 262
 C 749 260, 821 614, 782 662
 C 743 710, 328 725, 328 744
 C 328 763, 781 870, 778 856
 C 775 842, 342 654, 300 607
 C 258 560, 372 399, 361 389
 C 350 379, 162 499, 189 507
 C 216 515, 572 479, 628 472
 C 684 465, 752 443, 746 440
 C 740 437, 582 431, 570 443
 C 558 455, 667 546, 626 557
 C 585 568, 174 524, 163 549
 C 152 574, 480 789, 513 808
 C 546 827, 505 773, 493 742
 C 481 711, 383 555, 392 500
 C 401 445, 546 191, 581 196
 C 616 201, 784 546, 745 554
 C 706 562, 209 268, 194 277
 C 179 286, 529 611, 594 646
 C 659 681, 875 635, 845 622
 C 815 609, 356 551, 298 521
 C 240 491, 257 294, 263 322
 C 269 350, 347 793, 355 800
 C 363 807, 292 407, 339 389
 C 386 371, 820 594, 826 620
 C 832 646, 428 660, 402 651
 C 376 642, 571 560, 567 529
 C 563 498, 380 359, 363 345
 C 346 331, 382 386, 399 385
 C 416 384, 471 326, 534 339
 C 597 352, 975 495, 1024 512
">
</path>
</g>
<g id="awa-src"
stroke="rgb(0,255,0)"
stroke-width="3"
fill="none"
stroke-linecap="round"
stroke-linejoin="round"
filter="url(#lightUp)">
<path id="path_awa" d="M 0 522
 C 49 512, 430 429, 488 427
 C 546 425, 577 479, 577 505
 C 577 531, 476 709, 491 684
 C 506 659, 696 262, 726 260
 C 756 258, 826 618, 786 666
 C 746 714, 323 719, 322 738
 C 321 757, 783 870, 781 856
 C 779 842, 343 645, 301 599
 C 259 553, 373 402, 362 393
 C 351 384, 164 497, 190 505
 C 216 513, 566 482, 621 476
 C 676 470, 746 451, 740 447
 C 734 443, 573 425, 562 437
 C 551 449, 667 552, 628 563
 C 589 574, 182 518, 170 543
 C 158 568, 472 792, 505 812
 C 538 832, 508 769, 497 738
 C 486 707, 391 554, 399 499
 C 407 444, 538 184, 574 190
 C 610 196, 794 547, 755 555
 C 716 563, 205 265, 188 274
 C 171 283, 524 611, 590 646
 C 656 681, 880 633, 850 621
 C 820 609, 354 561, 295 531
 C 236 501, 255 298, 261 325
 C 267 352, 347 789, 354 796
 C 361 803, 285 413, 332 394
 C 379 375, 813 584, 820 610
 C 827 636, 426 662, 401 654
 C 376 646, 571 558, 567 528
 C 563 498, 378 369, 362 355
 C 346 341, 392 389, 409 387
 C 426 385, 472 325, 534 338
 C 596 351, 975 495, 1024 512
">
</path>
</g>
<filter id="lightUp"
filterUnits="userSpaceOnUse"
x="-100%" y="-100%" width="200%" height="200%"
color-interpolation-filters="sRGB">

<feGaussianBlur in="SourceGraphic"
stdDeviation="3" 
result="blur">
</feGaussianBlur>

<feMerge>
<feMergeNode in="blur"/>
<feMergeNode in="blur"/>
<feMergeNode in="SourceGraphic"/>
</feMerge>
</filter> 
</defs>

<rect width='1024' height='1024' fill='#000'/>

  <g>
    <use href="#thought-src" style="mix-blend-mode:lighten;"/>
    <use href="#will-src" style="mix-blend-mode:lighten;"/>
    <use href="#awa-src" style="mix-blend-mode:lighten;"/>
  </g>


</svg>