<svg width="1024" height="1024" viewBox="0 0 1024 1024"
     xmlns="http://www.w3.org/2000/svg"
     style="background:#000; isolation:isolate">

<defs>
<g id="thought-src"
stroke="rgb(0,0,255)"
stroke-width="2"
fill="none"
stroke-linecap="round"
stroke-linejoin="round"
filter="url(#lightUp)">
<path id="path_thought" d="M 0 519
 C 77 497, 483 348, 540 363
 C 597 378, 417 615, 396 627
 C 375 639, 346 459, 390 447
 C 434 435, 675 514, 701 546
 C 727 578, 605 670, 569 673
 C 533 676, 458 582, 448 567
 C 438 552, 475 554, 496 571
 C 517 588, 604 695, 595 689
 C 586 683, 450 550, 432 531
 C 414 512, 445 569, 466 559
 C 487 549, 557 442, 578 462
 C 599 482, 631 697, 612 696
 C 593 695, 486 504, 447 458
 C 408 412, 314 395, 341 376
 C 368 357, 627 300, 635 328
 C 643 356, 423 533, 398 573
 C 373 613, 417 629, 461 606
 C 505 583, 699 430, 706 412
 C 713 394, 516 469, 509 480
 C 502 491, 655 509, 654 489
 C 653 469, 547 354, 502 343
 C 457 332, 350 372, 337 415
 C 324 458, 375 605, 414 642
 C 453 679, 586 710, 609 671
 C 632 632, 580 373, 574 367
 C 568 361, 569 610, 570 627
 C 571 644, 570 487, 579 489
 C 588 491, 662 628, 635 641
 C 608 654, 381 615, 388 579
 C 395 543, 659 384, 683 391
 C 707 398, 574 628, 555 628
 C 536 628, 529 430, 547 388
 C 565 346, 682 303, 681 335
 C 680 367, 575 561, 537 613
 C 499 665, 408 708, 415 698
 C 422 688, 551 593, 587 543
 C 623 493, 683 336, 669 351
 C 655 366, 488 603, 490 651
 C 492 699, 668 685, 680 684
 C 692 683, 576 692, 576 643
 C 576 594, 613 358, 677 339
 C 741 320, 974 487, 1024 512
">
</path>
</g>
<g id="will-src"
stroke="rgb(255,0,0)"
stroke-width="2"
fill="none"
stroke-linecap="round"
stroke-linejoin="round"
filter="url(#lightUp)">
<path id="path_will" d="M 0 516
 C 77 494, 482 349, 539 365
 C 596 381, 417 616, 396 628
 C 375 640, 347 457, 390 446
 C 433 435, 672 517, 698 549
 C 724 581, 610 668, 574 670
 C 538 672, 458 578, 446 563
 C 434 548, 468 549, 489 567
 C 510 585, 603 694, 596 689
 C 589 684, 457 550, 438 531
 C 419 512, 445 569, 466 559
 C 487 549, 561 440, 582 461
 C 603 482, 633 704, 613 703
 C 593 702, 482 501, 442 454
 C 402 407, 308 395, 335 377
 C 362 359, 626 300, 634 328
 C 642 356, 416 535, 391 574
 C 366 613, 416 624, 461 600
 C 506 576, 699 424, 706 407
 C 713 390, 520 467, 511 479
 C 502 491, 646 509, 644 490
 C 642 471, 541 354, 497 343
 C 453 332, 349 368, 338 411
 C 327 454, 382 604, 422 642
 C 462 680, 594 715, 615 676
 C 636 637, 578 376, 570 369
 C 562 362, 560 610, 561 628
 C 562 646, 569 491, 580 492
 C 591 493, 664 625, 637 637
 C 610 649, 381 610, 389 576
 C 397 542, 666 391, 691 398
 C 716 405, 581 628, 561 627
 C 541 626, 533 437, 549 394
 C 565 351, 675 295, 673 326
 C 671 357, 575 560, 538 613
 C 501 666, 404 705, 411 696
 C 418 687, 550 597, 588 548
 C 626 499, 689 335, 674 350
 C 659 365, 483 603, 484 650
 C 485 697, 670 681, 684 680
 C 698 679, 580 690, 579 641
 C 578 592, 612 352, 676 334
 C 740 316, 974 487, 1024 512
">
</path>
</g>
<g id="awa-src"
stroke="rgb(0,255,0)"
stroke-width="2"
fill="none"
stroke-linecap="round"
stroke-linejoin="round"
filter="url(#lightUp)">
<path id="path_awa" d="M 0 516
 C 77 494, 485 346, 542 361
 C 599 376, 419 611, 397 623
 C 375 635, 344 456, 387 445
 C 430 434, 674 517, 701 548
 C 728 579, 614 662, 577 664
 C 540 666, 455 579, 443 565
 C 431 551, 474 548, 496 566
 C 518 584, 607 695, 597 689
 C 587 683, 447 545, 428 526
 C 409 507, 441 565, 463 556
 C 485 547, 560 440, 581 461
 C 602 482, 627 707, 608 706
 C 589 705, 484 500, 446 453
 C 408 406, 319 397, 345 380
 C 371 363, 622 310, 629 337
 C 636 364, 416 535, 393 572
 C 370 609, 423 621, 468 598
 C 513 575, 699 429, 705 412
 C 711 395, 519 467, 510 478
 C 501 489, 646 509, 645 490
 C 644 471, 545 356, 502 346
 C 459 336, 353 376, 342 418
 C 331 460, 384 604, 422 641
 C 460 678, 585 714, 607 675
 C 629 636, 580 377, 573 369
 C 566 361, 559 602, 561 620
 C 563 638, 573 490, 585 492
 C 597 494, 671 625, 642 636
 C 613 647, 376 607, 382 572
 C 388 537, 657 385, 683 393
 C 709 401, 583 629, 564 628
 C 545 627, 537 431, 553 388
 C 569 345, 681 296, 679 328
 C 677 360, 576 561, 538 613
 C 500 665, 404 705, 411 695
 C 418 685, 552 592, 590 542
 C 628 492, 691 329, 677 345
 C 663 361, 488 604, 489 652
 C 490 700, 672 686, 684 684
 C 696 682, 574 689, 573 639
 C 572 589, 614 350, 678 333
 C 742 316, 975 491, 1024 517
">
</path>
</g>
<filter id="lightUp"
filterUnits="userSpaceOnUse"
x="-100%" y="-100%" width="200%" height="200%"
color-interpolation-filters="sRGB">

<feGaussianBlur in="SourceGraphic"
stdDeviation="3" 
result="blur">
</feGaussianBlur>

<feMerge>
<feMergeNode in="blur"/>
<feMergeNode in="blur"/>
<feMergeNode in="SourceGraphic"/>
</feMerge>
</filter> 
</defs>

<rect width='1024' height='1024' fill='#000'/>

  <g>
    <use href="#thought-src" style="mix-blend-mode:lighten;"/>
    <use href="#will-src" style="mix-blend-mode:lighten;"/>
    <use href="#awa-src" style="mix-blend-mode:lighten;"/>
  </g>


</svg>