<svg width="1024" height="1024" viewBox="0 0 1024 1024"
     xmlns="http://www.w3.org/2000/svg"
     style="background:#000; isolation:isolate">

<defs>
<g id="thought-src"
stroke="rgb(0,0,255)"
stroke-width="2"
fill="none"
stroke-linecap="round"
stroke-linejoin="round"
filter="url(#lightUp)">
<path id="path_thought" d="M 0 516
 C 57 523, 470 597, 517 581
 C 564 565, 427 394, 421 374
 C 415 354, 440 407, 463 397
 C 486 387, 623 273, 627 282
 C 631 291, 491 476, 498 479
 C 505 482, 671 318, 691 312
 C 711 306, 691 389, 678 425
 C 665 461, 613 620, 576 640
 C 539 660, 332 639, 347 604
 C 362 569, 717 334, 714 322
 C 711 310, 366 494, 321 499
 C 276 504, 294 387, 310 367
 C 326 347, 416 321, 465 321
 C 514 321, 747 346, 754 367
 C 761 388, 538 494, 529 511
 C 520 528, 695 534, 674 522
 C 653 510, 353 423, 339 405
 C 325 387, 520 345, 548 358
 C 576 371, 603 485, 593 523
 C 583 561, 448 686, 461 700
 C 474 714, 704 670, 714 645
 C 724 620, 557 468, 551 479
 C 545 490, 640 726, 658 745
 C 676 764, 758 673, 717 646
 C 676 619, 310 537, 291 499
 C 272 461, 502 286, 547 301
 C 592 316, 694 597, 699 636
 C 704 675, 617 648, 588 650
 C 559 652, 459 671, 436 655
 C 413 639, 395 517, 384 503
 C 373 489, 335 501, 335 529
 C 335 557, 349 774, 385 754
 C 421 734, 618 387, 655 349
 C 692 311, 726 416, 720 414
 C 714 412, 608 327, 604 332
 C 600 337, 713 423, 684 458
 C 655 493, 365 637, 340 649
 C 315 661, 443 567, 462 569
 C 481 571, 511 680, 514 667
 C 517 654, 487 457, 485 454
 C 483 451, 507 652, 497 637
 C 487 622, 408 334, 391 321
 C 374 308, 313 511, 341 520
 C 369 529, 627 385, 645 406
 C 663 427, 524 683, 503 712
 C 482 741, 443 697, 454 668
 C 465 639, 536 466, 599 449
 C 662 432, 977 509, 1024 516
">
</path>
</g>
<g id="will-src"
stroke="rgb(255,0,0)"
stroke-width="2"
fill="none"
stroke-linecap="round"
stroke-linejoin="round"
filter="url(#lightUp)">
<path id="path_will" d="M 0 515
 C 58 523, 471 603, 518 586
 C 565 569, 426 388, 420 366
 C 414 344, 439 396, 462 387
 C 485 378, 627 272, 631 282
 C 635 292, 490 479, 496 481
 C 502 483, 661 310, 681 304
 C 701 298, 688 392, 677 429
 C 666 466, 617 618, 581 637
 C 545 656, 338 634, 353 599
 C 368 564, 718 337, 714 325
 C 710 313, 363 489, 319 493
 C 275 497, 300 382, 316 363
 C 332 344, 413 322, 461 323
 C 509 324, 739 349, 747 370
 C 755 391, 543 497, 536 513
 C 529 529, 703 528, 680 515
 C 657 502, 345 414, 331 397
 C 317 380, 525 348, 554 362
 C 583 376, 601 486, 591 524
 C 581 562, 449 693, 463 707
 C 477 721, 704 671, 714 646
 C 724 621, 558 469, 551 480
 C 544 491, 636 724, 655 742
 C 674 760, 759 669, 718 643
 C 677 617, 304 543, 286 506
 C 268 469, 506 291, 552 306
 C 598 321, 694 602, 698 640
 C 702 678, 616 642, 586 644
 C 556 646, 452 678, 430 662
 C 408 646, 396 517, 386 501
 C 376 485, 337 491, 337 519
 C 337 547, 352 773, 388 754
 C 424 735, 623 385, 659 347
 C 695 309, 722 414, 716 412
 C 710 410, 605 325, 601 330
 C 597 335, 711 422, 681 457
 C 651 492, 357 632, 332 645
 C 307 658, 435 572, 456 574
 C 477 576, 514 676, 517 663
 C 520 650, 484 461, 482 459
 C 480 457, 513 658, 503 643
 C 493 628, 407 340, 389 327
 C 371 314, 314 516, 343 525
 C 372 534, 633 388, 651 409
 C 669 430, 528 686, 506 715
 C 484 744, 444 695, 455 666
 C 466 637, 541 468, 604 451
 C 667 434, 977 506, 1024 513
">
</path>
</g>
<g id="awa-src"
stroke="rgb(0,255,0)"
stroke-width="2"
fill="none"
stroke-linecap="round"
stroke-linejoin="round"
filter="url(#lightUp)">
<path id="path_awa" d="M 0 516
 C 58 524, 471 604, 518 587
 C 565 570, 426 388, 420 367
 C 414 346, 437 404, 460 395
 C 483 386, 619 274, 623 284
 C 627 294, 491 478, 498 481
 C 505 484, 662 318, 682 313
 C 702 308, 691 396, 679 433
 C 667 470, 615 625, 578 643
 C 541 661, 333 633, 348 598
 C 363 563, 716 339, 713 328
 C 710 317, 362 496, 318 500
 C 274 504, 297 381, 313 361
 C 329 341, 409 317, 458 318
 C 507 319, 743 351, 751 372
 C 759 393, 540 492, 531 508
 C 522 524, 693 527, 672 516
 C 651 505, 353 422, 340 405
 C 327 388, 527 348, 555 361
 C 583 374, 598 482, 588 520
 C 578 558, 448 688, 461 701
 C 474 714, 697 667, 707 641
 C 717 615, 558 459, 553 470
 C 548 481, 643 723, 661 742
 C 679 761, 757 667, 716 640
 C 675 613, 308 539, 290 501
 C 272 463, 510 284, 556 299
 C 602 314, 697 600, 700 638
 C 703 676, 615 639, 586 642
 C 557 645, 460 677, 438 662
 C 416 647, 395 522, 384 507
 C 373 492, 336 496, 337 524
 C 338 552, 358 776, 393 757
 C 428 738, 615 389, 652 351
 C 689 313, 728 417, 723 415
 C 718 413, 613 327, 608 332
 C 603 337, 708 427, 677 462
 C 646 497, 356 638, 331 650
 C 306 662, 435 566, 455 568
 C 475 570, 509 679, 512 667
 C 515 655, 482 464, 481 461
 C 480 458, 513 653, 503 638
 C 493 623, 405 339, 388 327
 C 371 315, 320 517, 349 526
 C 378 535, 634 387, 652 408
 C 670 429, 530 684, 508 713
 C 486 742, 446 695, 456 666
 C 466 637, 535 471, 598 454
 C 661 437, 977 506, 1024 513
">
</path>
</g>
<filter id="lightUp"
filterUnits="userSpaceOnUse"
x="-100%" y="-100%" width="200%" height="200%"
color-interpolation-filters="sRGB">

<feGaussianBlur in="SourceGraphic"
stdDeviation="3" 
result="blur">
</feGaussianBlur>

<feMerge>
<feMergeNode in="blur"/>
<feMergeNode in="blur"/>
<feMergeNode in="SourceGraphic"/>
</feMerge>
</filter> 
</defs>

<rect width='1024' height='1024' fill='#000'/>

  <g>
    <use href="#thought-src" style="mix-blend-mode:lighten;"/>
    <use href="#will-src" style="mix-blend-mode:lighten;"/>
    <use href="#awa-src" style="mix-blend-mode:lighten;"/>
  </g>


</svg>