<svg width="1024" height="1024" viewBox="0 0 1024 1024"
     xmlns="http://www.w3.org/2000/svg"
     style="background:#000; isolation:isolate">

<defs>
<g id="thought-src"
stroke="rgb(0,0,255)"
stroke-width="6"
fill="none"
stroke-linecap="round"
stroke-linejoin="round"
filter="url(#lightUp)">
<path id="path_thought" d="M 0 513
 C 137 510, 626 516, 686 497
 C 746 478, 311 398, 300 418
 C 289 438, 599 533, 629 596
 C 659 659, 512 740, 451 734
 C 390 728, 368 576, 325 568
 C 282 560, 191 759, 238 692
 C 285 625, 484 231, 561 235
 C 638 239, 609 621, 621 710
 C 633 799, 582 693, 620 679
 C 658 665, 775 719, 812 641
 C 849 563, 912 351, 806 291
 C 700 231, 350 328, 282 341
 C 214 354, 370 289, 467 357
 C 564 425, 782 675, 769 679
 C 756 683, 480 421, 404 376
 C 328 331, 408 407, 388 452
 C 368 497, 255 604, 302 603
 C 349 602, 477 466, 621 449
 C 765 432, 943 504, 1024 518
">
</path>
</g>
<g id="will-src"
stroke="rgb(255,0,0)"
stroke-width="6"
fill="none"
stroke-linecap="round"
stroke-linejoin="round"
filter="url(#lightUp)">
<path id="path_will" d="M 0 513
 C 137 509, 623 513, 683 495
 C 743 477, 312 402, 301 424
 C 290 446, 595 545, 627 606
 C 659 667, 519 737, 459 730
 C 399 723, 371 578, 326 570
 C 281 562, 189 757, 236 689
 C 283 621, 483 224, 559 228
 C 635 232, 604 618, 617 708
 C 630 798, 586 691, 624 678
 C 662 665, 769 721, 806 643
 C 843 565, 916 350, 811 290
 C 706 230, 351 329, 281 343
 C 211 357, 362 293, 459 360
 C 556 427, 778 675, 768 678
 C 758 681, 488 422, 411 376
 C 334 330, 405 403, 384 448
 C 363 493, 260 603, 308 603
 C 356 603, 480 463, 623 447
 C 766 431, 944 507, 1024 522
">
</path>
</g>
<g id="awa-src"
stroke="rgb(0,255,0)"
stroke-width="6"
fill="none"
stroke-linecap="round"
stroke-linejoin="round"
filter="url(#lightUp)">
<path id="path_awa" d="M 0 522
 C 137 517, 623 519, 683 499
 C 743 479, 312 401, 300 422
 C 288 443, 592 541, 623 602
 C 654 663, 515 732, 455 725
 C 395 718, 368 576, 324 569
 C 280 562, 188 761, 235 692
 C 282 623, 483 222, 560 226
 C 637 230, 606 624, 618 713
 C 630 802, 582 687, 620 672
 C 658 657, 770 714, 808 637
 C 846 560, 914 345, 810 287
 C 706 229, 359 332, 289 348
 C 219 364, 365 298, 462 365
 C 559 432, 786 679, 776 682
 C 766 685, 490 424, 412 378
 C 334 332, 408 406, 387 451
 C 366 496, 260 603, 306 602
 C 352 601, 473 465, 617 447
 C 761 429, 943 500, 1024 513
">
</path>
</g>
<filter id="lightUp"
filterUnits="userSpaceOnUse"
x="-100%" y="-100%" width="200%" height="200%"
color-interpolation-filters="sRGB">

<feGaussianBlur in="SourceGraphic"
stdDeviation="3" 
result="blur">
</feGaussianBlur>

<feMerge>
<feMergeNode in="blur"/>
<feMergeNode in="blur"/>
<feMergeNode in="SourceGraphic"/>
</feMerge>
</filter> 
</defs>

<rect width='1024' height='1024' fill='#000'/>

  <g>
    <use href="#thought-src" style="mix-blend-mode:lighten;"/>
    <use href="#will-src" style="mix-blend-mode:lighten;"/>
    <use href="#awa-src" style="mix-blend-mode:lighten;"/>
  </g>


</svg>